<svg width="635" height="476" viewBox="0 0 635 476" fill="none" xmlns="http://www.w3.org/2000/svg">
<g clip-path="url(#clip0)">
<path d="M635 0H0V476H635V0Z" fill="#D3D800"/>
<path d="M611.103 279.832L677.881 242.949C681.547 241.01 683 237.167 683 233.323V218.338C683 215.27 680.094 212.943 676.791 214.494L606.017 251.024L535.209 214.494C532.303 212.943 529 215.27 529 218.338V233.323C529 237.167 530.453 241.01 534.119 242.949L600.897 279.867C603.804 281.383 607.833 281.383 611.103 279.832Z" fill="#BAD350"/>
<path d="M611.103 329.841L677.881 292.357C681.547 290.424 683 286.522 683 282.619V267.404C683 264.289 680.094 261.927 676.791 263.502L605.983 300.592L535.209 263.502C532.303 261.927 529 264.289 529 267.404V282.619C529 286.522 530.453 290.424 534.119 292.393L600.897 329.877C603.804 331.38 607.833 331.38 611.103 329.841Z" fill="#94C750"/>
<path d="M611.103 379.815L677.881 342.382C681.547 340.413 683 336.513 683 332.612V317.402C683 314.289 680.094 311.927 676.791 313.502L605.983 350.577L535.209 313.502C532.303 311.927 529 314.289 529 317.402V332.612C529 336.512 530.453 340.413 534.119 342.382L600.897 379.85C603.804 381.389 607.833 381.389 611.103 379.815Z" fill="#6EBB52"/>
<path d="M611.103 428.863L677.881 391.948C681.547 390.044 683 386.2 683 382.357V367.373C683 364.305 680.094 361.978 676.791 363.529L605.983 400.057L535.209 363.494C532.303 361.943 529 364.27 529 367.337V382.322C529 386.165 530.453 390.008 534.119 391.948L600.897 428.863C603.804 430.379 607.833 430.379 611.103 428.863Z" fill="#59B154"/>
<path d="M611.103 478.836L677.881 441.951C681.547 440.012 683 436.168 683 432.325V417.338C683 414.27 680.094 411.943 676.791 413.494L605.983 450.027L535.209 413.494C532.303 411.943 529 414.27 529 417.338V432.325C529 436.168 530.453 440.012 534.119 441.951L600.897 478.836C603.804 480.388 607.833 480.388 611.103 478.836Z" fill="#00AB4E"/>
<g filter="url(#filter0_d)">
<path d="M135 398H39C30.1634 398 23 405.163 23 414C23 422.837 30.1634 430 39 430H135C143.837 430 151 422.837 151 414C151 405.163 143.837 398 135 398Z" fill="#125430"/>
</g>
<path d="M47.4634 418.777L47.4736 416.185L49.2735 416.191C51.2535 416.198 52.2785 414.929 52.2844 413.429C52.2903 411.929 51.2753 410.654 49.2953 410.647L46.1394 410.636C45.9954 410.636 45.8869 410.755 45.8864 410.887L45.8554 418.771C45.8548 418.915 45.9623 419.036 46.1063 419.036L47.2103 419.04C47.3543 419.04 47.4628 418.921 47.4634 418.777ZM47.4791 414.769L47.4898 412.057L49.1818 412.063C49.9858 412.066 50.6197 412.584 50.6164 413.424C50.6131 414.264 49.9751 414.778 49.1711 414.775L47.4791 414.769ZM55.9364 413.214C55.3244 413.212 54.8191 413.546 54.5171 414.061L54.5192 413.509C54.5197 413.389 54.4001 413.281 54.2801 413.28L53.2841 413.277C53.1521 413.276 53.0437 413.384 53.0431 413.528L53.0223 418.82C53.0218 418.952 53.1294 419.06 53.2614 419.061L54.3174 419.065C54.4374 419.065 54.5698 418.969 54.5703 418.837L54.5805 416.233C54.5844 415.237 55.03 414.843 55.798 414.846L56.086 414.847C56.182 414.847 56.3742 414.788 56.3752 414.548L56.3792 413.516C56.3802 413.276 56.2244 413.215 56.1044 413.215L55.9364 413.214ZM56.6116 416.192C56.6048 417.908 57.9796 419.245 59.7076 419.251C61.4356 419.257 62.8208 417.93 62.8276 416.214C62.8344 414.486 61.4596 413.137 59.7317 413.131C58.0037 413.125 56.6184 414.464 56.6116 416.192ZM58.1716 416.186C58.1752 415.286 58.838 414.568 59.726 414.571C60.614 414.574 61.2712 415.297 61.2676 416.197C61.2641 417.097 60.6012 417.814 59.7133 417.811C58.8253 417.808 58.1681 417.086 58.1716 416.186ZM64.957 416.209C64.9606 415.309 65.6354 414.592 66.5234 414.595C67.4114 414.598 68.0685 415.32 68.065 416.22C68.0615 417.12 67.3986 417.85 66.5106 417.847C65.6226 417.844 64.9535 417.109 64.957 416.209ZM63.3971 416.192C63.3898 418.052 64.753 419.269 66.277 419.274C67.093 419.277 67.7184 418.907 68.0564 418.404L68.0546 418.872C68.0541 419.004 68.1616 419.112 68.2936 419.113L69.3376 419.116C69.4816 419.117 69.5901 419.009 69.5906 418.877L69.6217 410.957C69.6222 410.825 69.5147 410.717 69.3707 410.717L68.3267 410.713C68.1947 410.712 68.0742 410.82 68.0737 410.952L68.0617 414.012C67.7756 413.531 67.105 413.157 66.2771 413.154C64.7771 413.149 63.4044 414.344 63.3971 416.192ZM72.2499 413.571C72.2503 413.451 72.1308 413.342 71.9988 413.342L70.9548 413.338C70.8228 413.338 70.7023 413.445 70.7019 413.565L70.689 416.829C70.6833 418.293 71.5794 419.292 73.0554 419.297C73.9673 419.3 74.4968 418.942 74.8587 418.452L74.8569 418.908C74.8564 419.04 74.976 419.136 75.096 419.136L76.152 419.14C76.296 419.141 76.4044 419.033 76.4049 418.901L76.4257 413.609C76.4263 413.465 76.3187 413.357 76.1747 413.356L75.1187 413.352C74.9987 413.352 74.8783 413.46 74.8779 413.58L74.866 416.604C74.8628 417.408 74.3805 417.982 73.5285 417.979C72.6525 417.976 72.2348 417.41 72.2381 416.57L72.2499 413.571ZM77.2837 416.252C77.2769 417.98 78.6156 419.317 80.3556 419.323C81.5436 419.327 82.4819 418.754 82.965 417.964C83.0616 417.808 82.9903 417.628 82.8587 417.531L82.2725 417.073C82.0691 416.916 81.8888 416.988 81.7682 417.143C81.3824 417.61 81.0093 417.885 80.3853 417.883C79.4853 417.88 78.8401 417.157 78.8437 416.257C78.8472 415.357 79.498 414.64 80.398 414.643C81.022 414.645 81.3929 414.922 81.7751 415.391C81.8945 415.548 82.0742 415.621 82.2788 415.465L82.8686 415.011C83.001 414.916 83.0737 414.736 82.9783 414.58C82.5014 413.786 81.5677 413.207 80.3797 413.203C78.6397 413.197 77.2905 414.524 77.2837 416.252ZM87.5328 417.739C87.4255 417.583 87.2455 417.582 87.065 417.69C86.8605 417.821 86.6563 417.868 86.5123 417.868C86.2363 417.867 85.8529 417.71 85.8553 417.122L85.8648 414.686L87.5448 414.691C87.6768 414.692 87.7973 414.572 87.7978 414.44L87.8009 413.648C87.8015 413.504 87.6819 413.396 87.5499 413.395L85.8699 413.39L85.8763 411.782C85.8768 411.638 85.7692 411.529 85.6372 411.529L84.5813 411.525C84.4373 411.525 84.3288 411.632 84.3283 411.776L84.3219 413.384L83.5299 413.382C83.3979 413.381 83.2895 413.489 83.289 413.633L83.2858 414.425C83.2853 414.557 83.3928 414.677 83.5248 414.678L84.3168 414.68L84.3059 417.464C84.3008 418.76 85.2587 419.292 86.2187 419.295C86.8787 419.297 87.4795 419.095 87.853 418.725C87.9614 418.617 87.986 418.473 87.8905 418.329L87.5328 417.739ZM94.1896 410.634C92.3416 410.628 90.9815 411.667 90.9757 413.143C90.9711 414.307 91.7001 415.09 93.0067 415.43L94.5292 415.832C95.3563 416.05 95.7871 416.352 95.7849 416.928C95.7828 417.444 95.2769 417.946 94.2689 417.943C93.2609 417.939 92.6147 417.481 92.1365 417.011C91.9692 416.843 91.8015 416.758 91.5729 416.925L90.8988 417.439C90.6701 417.618 90.717 417.906 90.9082 418.099C91.4458 418.713 92.5233 419.365 94.1673 419.37C96.4472 419.378 97.5325 418.05 97.5375 416.778C97.5427 415.446 96.6575 414.747 95.3029 414.382L93.6606 413.945C92.9173 413.75 92.7026 413.425 92.7041 413.041C92.7066 412.405 93.344 412.047 94.136 412.05C94.856 412.053 95.4428 412.367 95.9932 412.789C96.2444 412.981 96.4605 412.946 96.6292 412.779L97.1352 412.265C97.2557 412.145 97.3765 411.941 97.0896 411.664C96.5397 411.135 95.5096 410.639 94.1896 410.634ZM101.156 413.274C99.3801 413.268 98.1027 414.632 98.096 416.348C98.0892 418.064 99.356 419.388 101.168 419.395C101.756 419.397 102.248 419.278 102.669 419.088C103.102 418.885 103.475 418.587 103.729 418.251C103.801 418.156 103.801 418.024 103.67 417.939L102.82 417.408C102.688 417.336 102.592 417.371 102.508 417.467C102.339 417.659 102.182 417.79 101.978 417.897C101.761 418.005 101.509 418.076 101.197 418.075C100.417 418.072 99.7713 417.53 99.6905 416.713L103.819 416.728C104.035 416.728 104.095 416.609 104.096 416.465L104.097 416.177C104.103 414.641 102.944 413.281 101.156 413.274ZM102.574 415.739L99.7304 415.73C99.8893 414.998 100.467 414.52 101.163 414.523C101.823 414.525 102.433 414.947 102.574 415.739ZM106.136 416.352C106.14 415.452 106.815 414.734 107.703 414.737C108.591 414.74 109.248 415.462 109.244 416.362C109.241 417.262 108.578 417.992 107.69 417.989C106.802 417.986 106.133 417.252 106.136 416.352ZM104.577 416.334C104.569 418.194 105.944 419.411 107.456 419.416C108.272 419.419 108.934 419.049 109.236 418.546L109.234 419.014C109.233 419.146 109.341 419.255 109.473 419.255L110.529 419.259C110.661 419.259 110.769 419.152 110.77 419.02L110.791 413.728C110.791 413.584 110.684 413.475 110.552 413.475L109.496 413.471C109.376 413.471 109.255 413.578 109.255 413.722L109.253 414.178C108.967 413.673 108.308 413.299 107.492 413.296C105.968 413.291 104.584 414.474 104.577 416.334ZM114.834 413.418C114.222 413.416 113.717 413.75 113.415 414.265L113.417 413.713C113.418 413.593 113.298 413.484 113.178 413.484L112.182 413.481C112.05 413.48 111.942 413.588 111.941 413.732L111.92 419.024C111.92 419.156 112.027 419.264 112.159 419.265L113.215 419.268C113.335 419.269 113.468 419.173 113.468 419.041L113.479 416.437C113.483 415.441 113.928 415.047 114.696 415.049L114.984 415.05C115.08 415.051 115.272 414.991 115.273 414.751L115.277 413.719C115.278 413.479 115.122 413.419 115.002 413.418H114.834ZM115.522 416.384C115.515 418.112 116.854 419.449 118.594 419.455C119.782 419.459 120.72 418.886 121.203 418.096C121.3 417.94 121.228 417.76 121.097 417.663L120.511 417.205C120.307 417.049 120.127 417.12 120.006 417.276C119.62 417.742 119.247 418.017 118.623 418.015C117.723 418.012 117.078 417.29 117.082 416.39C117.085 415.49 117.736 414.772 118.636 414.775C119.26 414.777 119.631 415.054 120.013 415.524C120.133 415.68 120.312 415.753 120.517 415.597L121.107 415.143C121.239 415.048 121.312 414.868 121.216 414.712C120.739 413.918 119.806 413.339 118.618 413.335C116.878 413.329 115.529 414.656 115.522 416.384ZM126.414 419.086C126.414 419.218 126.533 419.314 126.665 419.315L127.709 419.318C127.841 419.319 127.962 419.223 127.962 419.091L127.975 415.875C127.98 414.447 127.037 413.364 125.501 413.359C124.577 413.355 123.915 413.737 123.577 414.204L123.589 411.132C123.59 411 123.458 410.904 123.338 410.903L122.282 410.9C122.15 410.899 122.042 411.007 122.041 411.139L122.01 419.059C122.01 419.191 122.117 419.299 122.249 419.299L123.305 419.303C123.425 419.304 123.558 419.208 123.558 419.076L123.569 416.28C123.573 415.392 124.151 414.782 125.027 414.785C125.915 414.788 126.429 415.378 126.425 416.29L126.414 419.086Z" fill="white"/>
<path d="M234.818 388.357H9.09506V462.495H234.818V388.357Z" fill="#D3D800"/>
<path d="M34.94 84.68V71.72H43.94C53.84 71.72 58.94 65.36 58.94 57.86C58.94 50.36 53.84 44 43.94 44H28.16C27.44 44 26.9 44.6 26.9 45.26V84.68C26.9 85.4 27.44 86 28.16 86H33.68C34.4 86 34.94 85.4 34.94 84.68ZM34.94 64.64V51.08H43.4C47.42 51.08 50.6 53.66 50.6 57.86C50.6 62.06 47.42 64.64 43.4 64.64H34.94ZM70.1155 86H73.9555C74.5555 86 75.5155 85.76 75.5155 84.5V80.72C75.5155 79.88 74.9155 79.58 74.3155 79.58H72.5755C71.1355 79.58 70.4155 78.68 70.4155 77.3V45.26C70.4155 44.6 69.8755 44 69.1555 44H63.9355C63.2155 44 62.6755 44.6 62.6755 45.26V78.8C62.6755 83.18 64.9555 86 70.1155 86ZM92.2972 56.24C83.4172 56.24 77.0572 63.08 77.0572 71.66C77.0572 80.24 83.4172 86.84 92.4772 86.84C95.4172 86.84 97.8772 86.24 99.9772 85.28C102.137 84.26 103.997 82.76 105.257 81.08C105.617 80.6 105.617 79.94 104.957 79.52L100.697 76.88C100.037 76.52 99.5572 76.7 99.1372 77.18C98.2972 78.14 97.5172 78.8 96.4972 79.34C95.4172 79.88 94.1572 80.24 92.5972 80.24C88.6972 80.24 85.4572 77.54 85.0372 73.46H105.677C106.757 73.46 107.057 72.86 107.057 72.14V70.7C107.057 63.02 101.237 56.24 92.2972 56.24ZM99.4372 68.54H85.2172C85.9972 64.88 88.8772 62.48 92.3572 62.48C95.6572 62.48 98.7172 64.58 99.4372 68.54ZM117.26 71.54C117.26 67.04 120.62 63.44 125.06 63.44C129.5 63.44 132.8 67.04 132.8 71.54C132.8 76.04 129.5 79.7 125.06 79.7C120.62 79.7 117.26 76.04 117.26 71.54ZM109.46 71.48C109.46 80.78 116.36 86.84 123.92 86.84C128 86.84 131.3 84.98 132.8 82.46V84.8C132.8 85.46 133.34 86 134 86H139.28C139.94 86 140.48 85.46 140.48 84.8V58.34C140.48 57.62 139.94 57.08 139.28 57.08H134C133.4 57.08 132.8 57.62 132.8 58.34V60.62C131.36 58.1 128.06 56.24 123.98 56.24C116.36 56.24 109.46 62.18 109.46 71.48ZM157.452 56.24C150.012 56.24 145.212 60.26 145.212 65.48C145.212 70.16 148.332 73.1 153.012 74.06L157.632 75.02C160.632 75.62 162.252 76.22 162.252 77.9C162.252 79.4 160.752 80.78 157.632 80.78C154.572 80.78 152.172 79.46 150.252 77.78C149.532 77.18 148.692 76.7 147.552 77.6L145.332 79.4C144.132 80.36 144.012 81.74 146.232 83.42C148.512 85.16 152.232 86.84 157.272 86.84C164.892 86.84 170.172 82.76 170.172 77.18C170.172 71.96 166.452 69.5 161.352 68.54L156.612 67.64C153.972 67.16 152.952 66.26 152.952 64.88C152.952 63.5 154.632 62.3 157.272 62.3C159.792 62.3 162.252 63.44 164.112 64.76C165.192 65.42 166.092 65.42 166.812 64.58L168.732 62.3C169.392 61.52 169.512 60.62 168.672 59.9C166.812 58.28 162.972 56.24 157.452 56.24ZM188.039 56.24C179.159 56.24 172.799 63.08 172.799 71.66C172.799 80.24 179.159 86.84 188.219 86.84C191.159 86.84 193.619 86.24 195.719 85.28C197.879 84.26 199.739 82.76 200.999 81.08C201.359 80.6 201.359 79.94 200.699 79.52L196.439 76.88C195.779 76.52 195.299 76.7 194.879 77.18C194.039 78.14 193.259 78.8 192.239 79.34C191.159 79.88 189.899 80.24 188.339 80.24C184.439 80.24 181.199 77.54 180.779 73.46H201.419C202.499 73.46 202.799 72.86 202.799 72.14V70.7C202.799 63.02 196.979 56.24 188.039 56.24ZM195.179 68.54H180.959C181.739 64.88 184.619 62.48 188.099 62.48C191.399 62.48 194.459 64.58 195.179 68.54ZM217.741 71.54C217.741 80.18 224.461 86.84 233.161 86.84C239.101 86.84 243.781 83.96 246.181 80C246.661 79.22 246.301 78.32 245.641 77.84L242.701 75.56C241.681 74.78 240.781 75.14 240.181 75.92C238.261 78.26 236.401 79.64 233.281 79.64C228.781 79.64 225.541 76.04 225.541 71.54C225.541 67.04 228.781 63.44 233.281 63.44C236.401 63.44 238.261 64.82 240.181 67.16C240.781 67.94 241.681 68.3 242.701 67.52L245.641 65.24C246.301 64.76 246.661 63.86 246.181 63.08C243.781 59.12 239.101 56.24 233.161 56.24C224.461 56.24 217.741 62.9 217.741 71.54ZM256.361 71.54C256.361 67.04 259.721 63.44 264.161 63.44C268.601 63.44 271.901 67.04 271.901 71.54C271.901 76.04 268.601 79.7 264.161 79.7C259.721 79.7 256.361 76.04 256.361 71.54ZM248.561 71.48C248.561 80.78 255.461 86.84 263.021 86.84C267.101 86.84 270.401 84.98 271.901 82.46V84.8C271.901 85.46 272.441 86 273.101 86H278.381C279.041 86 279.581 85.46 279.581 84.8V58.34C279.581 57.62 279.041 57.08 278.381 57.08H273.101C272.501 57.08 271.901 57.62 271.901 58.34V60.62C270.461 58.1 267.161 56.24 263.081 56.24C255.461 56.24 248.561 62.18 248.561 71.48ZM292.713 86H296.553C297.153 86 298.113 85.76 298.113 84.5V80.72C298.113 79.88 297.513 79.58 296.913 79.58H295.173C293.733 79.58 293.013 78.68 293.013 77.3V45.26C293.013 44.6 292.473 44 291.753 44H286.533C285.813 44 285.273 44.6 285.273 45.26V78.8C285.273 83.18 287.553 86 292.713 86ZM308.768 86H312.608C313.208 86 314.168 85.76 314.168 84.5V80.72C314.168 79.88 313.568 79.58 312.968 79.58H311.228C309.788 79.58 309.068 78.68 309.068 77.3V45.26C309.068 44.6 308.528 44 307.808 44H302.588C301.868 44 301.328 44.6 301.328 45.26V78.8C301.328 83.18 303.608 86 308.768 86ZM32.24 134.54C32.24 130.04 35.6 126.44 40.04 126.44C44.48 126.44 47.78 130.04 47.78 134.54C47.78 139.04 44.48 142.7 40.04 142.7C35.6 142.7 32.24 139.04 32.24 134.54ZM24.44 134.48C24.44 143.78 31.34 149.84 38.9 149.84C42.98 149.84 46.28 147.98 47.78 145.46V147.8C47.78 148.46 48.32 149 48.98 149H54.26C54.92 149 55.46 148.46 55.46 147.8V121.34C55.46 120.62 54.92 120.08 54.26 120.08H48.98C48.38 120.08 47.78 120.62 47.78 121.34V123.62C46.34 121.1 43.04 119.24 38.96 119.24C31.34 119.24 24.44 125.18 24.44 134.48ZM72.432 119.24C64.992 119.24 60.192 123.26 60.192 128.48C60.192 133.16 63.312 136.1 67.992 137.06L72.612 138.02C75.612 138.62 77.232 139.22 77.232 140.9C77.232 142.4 75.732 143.78 72.612 143.78C69.552 143.78 67.152 142.46 65.232 140.78C64.512 140.18 63.672 139.7 62.532 140.6L60.312 142.4C59.112 143.36 58.992 144.74 61.212 146.42C63.492 148.16 67.212 149.84 72.252 149.84C79.872 149.84 85.152 145.76 85.152 140.18C85.152 134.96 81.432 132.5 76.332 131.54L71.592 130.64C68.952 130.16 67.932 129.26 67.932 127.88C67.932 126.5 69.612 125.3 72.252 125.3C74.772 125.3 77.232 126.44 79.092 127.76C80.172 128.42 81.072 128.42 81.792 127.58L83.712 125.3C84.372 124.52 84.492 123.62 83.652 122.9C81.792 121.28 77.952 119.24 72.432 119.24ZM100.44 119.24C92.9998 119.24 88.1998 123.26 88.1998 128.48C88.1998 133.16 91.3198 136.1 95.9998 137.06L100.62 138.02C103.62 138.62 105.24 139.22 105.24 140.9C105.24 142.4 103.74 143.78 100.62 143.78C97.5598 143.78 95.1598 142.46 93.2398 140.78C92.5198 140.18 91.6798 139.7 90.5398 140.6L88.3198 142.4C87.1198 143.36 86.9998 144.74 89.2198 146.42C91.4998 148.16 95.2198 149.84 100.26 149.84C107.88 149.84 113.16 145.76 113.16 140.18C113.16 134.96 109.44 132.5 104.34 131.54L99.5998 130.64C96.9598 130.16 95.9398 129.26 95.9398 127.88C95.9398 126.5 97.6198 125.3 100.26 125.3C102.78 125.3 105.24 126.44 107.1 127.76C108.18 128.42 109.08 128.42 109.8 127.58L111.72 125.3C112.38 124.52 112.5 123.62 111.66 122.9C109.8 121.28 105.96 119.24 100.44 119.24ZM121.128 116.3C123.768 116.3 125.928 114.08 125.928 111.44C125.928 108.8 123.768 106.58 121.128 106.58C118.428 106.58 116.268 108.8 116.268 111.44C116.268 114.08 118.428 116.3 121.128 116.3ZM123.708 149C124.428 149 124.968 148.4 124.968 147.74V121.34C124.968 120.62 124.428 120.08 123.708 120.08H118.488C117.768 120.08 117.228 120.62 117.228 121.34V147.74C117.228 148.4 117.768 149 118.488 149H123.708ZM141.924 119.24C134.484 119.24 129.684 123.26 129.684 128.48C129.684 133.16 132.804 136.1 137.484 137.06L142.104 138.02C145.104 138.62 146.724 139.22 146.724 140.9C146.724 142.4 145.224 143.78 142.104 143.78C139.044 143.78 136.644 142.46 134.724 140.78C134.004 140.18 133.164 139.7 132.024 140.6L129.804 142.4C128.604 143.36 128.484 144.74 130.704 146.42C132.984 148.16 136.704 149.84 141.744 149.84C149.364 149.84 154.644 145.76 154.644 140.18C154.644 134.96 150.924 132.5 145.824 131.54L141.084 130.64C138.444 130.16 137.424 129.26 137.424 127.88C137.424 126.5 139.104 125.3 141.744 125.3C144.264 125.3 146.724 126.44 148.584 127.76C149.664 128.42 150.564 128.42 151.284 127.58L153.204 125.3C153.864 124.52 153.984 123.62 153.144 122.9C151.284 121.28 147.444 119.24 141.924 119.24ZM177.492 141.8C176.952 141.02 176.052 141.02 175.152 141.56C174.132 142.22 173.112 142.46 172.392 142.46C171.012 142.46 169.092 141.68 169.092 138.74V126.56H177.492C178.152 126.56 178.752 125.96 178.752 125.3V121.34C178.752 120.62 178.152 120.08 177.492 120.08H169.092V112.04C169.092 111.32 168.552 110.78 167.892 110.78H162.612C161.892 110.78 161.352 111.32 161.352 112.04V120.08H157.392C156.732 120.08 156.192 120.62 156.192 121.34V125.3C156.192 125.96 156.732 126.56 157.392 126.56H161.352V140.48C161.352 146.96 166.152 149.6 170.952 149.6C174.252 149.6 177.252 148.58 179.112 146.72C179.652 146.18 179.772 145.46 179.292 144.74L177.492 141.8ZM188.627 134.54C188.627 130.04 191.987 126.44 196.427 126.44C200.867 126.44 204.167 130.04 204.167 134.54C204.167 139.04 200.867 142.7 196.427 142.7C191.987 142.7 188.627 139.04 188.627 134.54ZM180.827 134.48C180.827 143.78 187.727 149.84 195.287 149.84C199.367 149.84 202.667 147.98 204.167 145.46V147.8C204.167 148.46 204.707 149 205.367 149H210.647C211.307 149 211.847 148.46 211.847 147.8V121.34C211.847 120.62 211.307 120.08 210.647 120.08H205.367C204.767 120.08 204.167 120.62 204.167 121.34V123.62C202.727 121.1 199.427 119.24 195.347 119.24C187.727 119.24 180.827 125.18 180.827 134.48ZM239.619 147.86C239.619 148.52 240.219 149 240.879 149H246.099C246.759 149 247.359 148.52 247.359 147.86V131.78C247.359 124.64 242.619 119.24 234.939 119.24C230.319 119.24 227.019 121.16 225.339 123.5V121.22C225.339 120.62 224.679 120.08 224.079 120.08H218.799C218.139 120.08 217.599 120.62 217.599 121.34V147.8C217.599 148.46 218.139 149 218.799 149H224.079C224.679 149 225.339 148.52 225.339 147.86V133.88C225.339 129.44 228.219 126.38 232.599 126.38C237.039 126.38 239.619 129.32 239.619 133.88V147.86ZM271.242 141.8C270.702 141.02 269.802 141.02 268.902 141.56C267.882 142.22 266.862 142.46 266.142 142.46C264.762 142.46 262.842 141.68 262.842 138.74V126.56H271.242C271.902 126.56 272.502 125.96 272.502 125.3V121.34C272.502 120.62 271.902 120.08 271.242 120.08H262.842V112.04C262.842 111.32 262.302 110.78 261.642 110.78H256.362C255.642 110.78 255.102 111.32 255.102 112.04V120.08H251.142C250.482 120.08 249.942 120.62 249.942 121.34V125.3C249.942 125.96 250.482 126.56 251.142 126.56H255.102V140.48C255.102 146.96 259.902 149.6 264.702 149.6C268.002 149.6 271.002 148.58 272.862 146.72C273.402 146.18 273.522 145.46 273.042 144.74L271.242 141.8ZM44.66 204.8C44.12 204.02 43.22 204.02 42.32 204.56C41.3 205.22 40.28 205.46 39.56 205.46C38.18 205.46 36.26 204.68 36.26 201.74V189.56H44.66C45.32 189.56 45.92 188.96 45.92 188.3V184.34C45.92 183.62 45.32 183.08 44.66 183.08H36.26V175.04C36.26 174.32 35.72 173.78 35.06 173.78H29.78C29.06 173.78 28.52 174.32 28.52 175.04V183.08H24.56C23.9 183.08 23.36 183.62 23.36 184.34V188.3C23.36 188.96 23.9 189.56 24.56 189.56H28.52V203.48C28.52 209.96 33.32 212.6 38.12 212.6C41.42 212.6 44.42 211.58 46.28 209.72C46.82 209.18 46.94 208.46 46.46 207.74L44.66 204.8ZM47.9347 197.6C47.9347 206.18 54.8347 212.84 63.4747 212.84C72.1147 212.84 79.0147 206.18 79.0147 197.6C79.0147 188.96 72.1147 182.24 63.4747 182.24C54.8347 182.24 47.9347 188.96 47.9347 197.6ZM55.7347 197.54C55.7347 193.04 59.0347 189.44 63.4747 189.44C67.9147 189.44 71.2147 193.04 71.2147 197.54C71.2147 202.04 67.9147 205.64 63.4747 205.64C59.0347 205.64 55.7347 202.04 55.7347 197.54ZM94.4009 197.54C94.4009 206.18 101.121 212.84 109.821 212.84C115.761 212.84 120.441 209.96 122.841 206C123.321 205.22 122.961 204.32 122.301 203.84L119.361 201.56C118.341 200.78 117.441 201.14 116.841 201.92C114.921 204.26 113.061 205.64 109.941 205.64C105.441 205.64 102.201 202.04 102.201 197.54C102.201 193.04 105.441 189.44 109.941 189.44C113.061 189.44 114.921 190.82 116.841 193.16C117.441 193.94 118.341 194.3 119.361 193.52L122.301 191.24C122.961 190.76 123.321 189.86 122.841 189.08C120.441 185.12 115.761 182.24 109.821 182.24C101.121 182.24 94.4009 188.9 94.4009 197.54ZM148.916 210.86C148.916 211.52 149.516 212 150.176 212H155.396C156.056 212 156.656 211.52 156.656 210.86V194.78C156.656 187.64 151.916 182.24 144.236 182.24C139.616 182.24 136.316 184.16 134.636 186.5V171.14C134.636 170.48 133.976 170 133.376 170H128.096C127.436 170 126.896 170.54 126.896 171.2V210.8C126.896 211.46 127.436 212 128.096 212H133.376C133.976 212 134.636 211.52 134.636 210.86V196.88C134.636 192.44 137.516 189.38 141.896 189.38C146.336 189.38 148.916 192.32 148.916 196.88V210.86ZM175.91 182.24C167.03 182.24 160.67 189.08 160.67 197.66C160.67 206.24 167.03 212.84 176.09 212.84C179.03 212.84 181.49 212.24 183.59 211.28C185.75 210.26 187.61 208.76 188.87 207.08C189.23 206.6 189.23 205.94 188.57 205.52L184.31 202.88C183.65 202.52 183.17 202.7 182.75 203.18C181.91 204.14 181.13 204.8 180.11 205.34C179.03 205.88 177.77 206.24 176.21 206.24C172.31 206.24 169.07 203.54 168.65 199.46H189.29C190.37 199.46 190.67 198.86 190.67 198.14V196.7C190.67 189.02 184.85 182.24 175.91 182.24ZM183.05 194.54H168.83C169.61 190.88 172.49 188.48 175.97 188.48C179.27 188.48 182.33 190.58 183.05 194.54ZM193.073 197.54C193.073 206.18 199.793 212.84 208.493 212.84C214.433 212.84 219.113 209.96 221.513 206C221.993 205.22 221.633 204.32 220.973 203.84L218.033 201.56C217.013 200.78 216.113 201.14 215.513 201.92C213.593 204.26 211.733 205.64 208.613 205.64C204.113 205.64 200.873 202.04 200.873 197.54C200.873 193.04 204.113 189.44 208.613 189.44C211.733 189.44 213.593 190.82 215.513 193.16C216.113 193.94 217.013 194.3 218.033 193.52L220.973 191.24C221.633 190.76 221.993 189.86 221.513 189.08C219.113 185.12 214.433 182.24 208.493 182.24C199.793 182.24 193.073 188.9 193.073 197.54ZM233.308 210.8V199.52H235.708L243.748 210.98C244.228 211.7 244.828 212 245.548 212H251.608C252.808 212 253.228 210.98 252.628 210.08L242.188 195.8L251.128 184.94C251.788 184.04 251.488 183.08 250.348 183.08H244.468C243.868 183.08 243.328 183.32 242.848 183.98L235.528 193.52H233.308V171.2C233.308 170.54 232.768 170 232.048 170H226.828C226.108 170 225.568 170.54 225.568 171.2V210.8C225.568 211.46 226.108 212 226.828 212H232.048C232.768 212 233.308 211.46 233.308 210.8ZM285.832 204.8C285.292 204.02 284.392 204.02 283.492 204.56C282.472 205.22 281.452 205.46 280.732 205.46C279.352 205.46 277.432 204.68 277.432 201.74V189.56H285.832C286.492 189.56 287.092 188.96 287.092 188.3V184.34C287.092 183.62 286.492 183.08 285.832 183.08H277.432V175.04C277.432 174.32 276.892 173.78 276.232 173.78H270.952C270.232 173.78 269.692 174.32 269.692 175.04V183.08H265.732C265.072 183.08 264.532 183.62 264.532 184.34V188.3C264.532 188.96 265.072 189.56 265.732 189.56H269.692V203.48C269.692 209.96 274.492 212.6 279.292 212.6C282.592 212.6 285.592 211.58 287.452 209.72C287.992 209.18 288.112 208.46 287.632 207.74L285.832 204.8ZM313.037 210.86C313.037 211.52 313.637 212 314.297 212H319.517C320.177 212 320.777 211.52 320.777 210.86V194.78C320.777 187.64 316.037 182.24 308.357 182.24C303.737 182.24 300.437 184.16 298.757 186.5V171.14C298.757 170.48 298.097 170 297.497 170H292.217C291.557 170 291.017 170.54 291.017 171.2V210.8C291.017 211.46 291.557 212 292.217 212H297.497C298.097 212 298.757 211.52 298.757 210.86V196.88C298.757 192.44 301.637 189.38 306.017 189.38C310.457 189.38 313.037 192.32 313.037 196.88V210.86ZM340.032 182.24C331.152 182.24 324.792 189.08 324.792 197.66C324.792 206.24 331.152 212.84 340.212 212.84C343.152 212.84 345.612 212.24 347.712 211.28C349.872 210.26 351.732 208.76 352.992 207.08C353.352 206.6 353.352 205.94 352.692 205.52L348.432 202.88C347.772 202.52 347.292 202.7 346.872 203.18C346.032 204.14 345.252 204.8 344.232 205.34C343.152 205.88 341.892 206.24 340.332 206.24C336.432 206.24 333.192 203.54 332.772 199.46H353.412C354.492 199.46 354.792 198.86 354.792 198.14V196.7C354.792 189.02 348.972 182.24 340.032 182.24ZM347.172 194.54H332.952C333.732 190.88 336.612 188.48 340.092 188.48C343.392 188.48 346.452 190.58 347.172 194.54ZM37.1 245.24C29.66 245.24 24.86 249.26 24.86 254.48C24.86 259.16 27.98 262.1 32.66 263.06L37.28 264.02C40.28 264.62 41.9 265.22 41.9 266.9C41.9 268.4 40.4 269.78 37.28 269.78C34.22 269.78 31.82 268.46 29.9 266.78C29.18 266.18 28.34 265.7 27.2 266.6L24.98 268.4C23.78 269.36 23.66 270.74 25.88 272.42C28.16 274.16 31.88 275.84 36.92 275.84C44.54 275.84 49.82 271.76 49.82 266.18C49.82 260.96 46.1 258.5 41 257.54L36.26 256.64C33.62 256.16 32.6 255.26 32.6 253.88C32.6 252.5 34.28 251.3 36.92 251.3C39.44 251.3 41.9 252.44 43.76 253.76C44.84 254.42 45.74 254.42 46.46 253.58L48.38 251.3C49.04 250.52 49.16 249.62 48.32 248.9C46.46 247.28 42.62 245.24 37.1 245.24ZM52.4478 260.54C52.4478 269.18 59.1678 275.84 67.8678 275.84C73.8078 275.84 78.4878 272.96 80.8878 269C81.3678 268.22 81.0078 267.32 80.3478 266.84L77.4078 264.56C76.3878 263.78 75.4878 264.14 74.8878 264.92C72.9678 267.26 71.1078 268.64 67.9878 268.64C63.4878 268.64 60.2478 265.04 60.2478 260.54C60.2478 256.04 63.4878 252.44 67.9878 252.44C71.1078 252.44 72.9678 253.82 74.8878 256.16C75.4878 256.94 76.3878 257.3 77.4078 256.52L80.3478 254.24C81.0078 253.76 81.3678 252.86 80.8878 252.08C78.4878 248.12 73.8078 245.24 67.8678 245.24C59.1678 245.24 52.4478 251.9 52.4478 260.54ZM91.0681 260.54C91.0681 256.04 94.4281 252.44 98.8681 252.44C103.308 252.44 106.608 256.04 106.608 260.54C106.608 265.04 103.308 268.7 98.8681 268.7C94.4281 268.7 91.0681 265.04 91.0681 260.54ZM83.2681 260.48C83.2681 269.78 90.1681 275.84 97.7281 275.84C101.808 275.84 105.108 273.98 106.608 271.46V273.8C106.608 274.46 107.148 275 107.808 275H113.088C113.748 275 114.288 274.46 114.288 273.8V247.34C114.288 246.62 113.748 246.08 113.088 246.08H107.808C107.208 246.08 106.608 246.62 106.608 247.34V249.62C105.168 247.1 101.868 245.24 97.7881 245.24C90.1681 245.24 83.2681 251.18 83.2681 260.48ZM127.42 275H131.26C131.86 275 132.82 274.76 132.82 273.5V269.72C132.82 268.88 132.22 268.58 131.62 268.58H129.88C128.44 268.58 127.72 267.68 127.72 266.3V234.26C127.72 233.6 127.18 233 126.46 233H121.24C120.52 233 119.98 233.6 119.98 234.26V267.8C119.98 272.18 122.26 275 127.42 275ZM149.602 245.24C140.722 245.24 134.362 252.08 134.362 260.66C134.362 269.24 140.722 275.84 149.782 275.84C152.722 275.84 155.182 275.24 157.282 274.28C159.442 273.26 161.302 271.76 162.562 270.08C162.922 269.6 162.922 268.94 162.262 268.52L158.002 265.88C157.342 265.52 156.862 265.7 156.442 266.18C155.602 267.14 154.822 267.8 153.802 268.34C152.722 268.88 151.462 269.24 149.902 269.24C146.002 269.24 142.762 266.54 142.342 262.46H162.982C164.062 262.46 164.362 261.86 164.362 261.14V259.7C164.362 252.02 158.542 245.24 149.602 245.24ZM156.742 257.54H142.522C143.302 253.88 146.182 251.48 149.662 251.48C152.962 251.48 156.022 253.58 156.742 257.54ZM23.22 347.04C23.22 347.28 23.4 347.46 23.64 347.46H27.8V358.56C27.8 358.8 27.98 359 28.22 359H30.12C30.36 359 30.56 358.8 30.56 358.56V347.46H34.72C34.96 347.46 35.14 347.28 35.14 347.04V345.44C35.14 345.2 34.96 345 34.72 345H23.64C23.4 345 23.22 345.2 23.22 345.44V347.04ZM43.6633 358.62C43.6633 358.84 43.8633 359 44.0833 359H45.8233C46.0433 359 46.2433 358.84 46.2433 358.62V353.26C46.2433 350.88 44.6633 349.08 42.1033 349.08C40.5633 349.08 39.4633 349.72 38.9033 350.5V345.38C38.9033 345.16 38.6833 345 38.4833 345H36.7233C36.5033 345 36.3233 345.18 36.3233 345.4V358.6C36.3233 358.82 36.5033 359 36.7233 359H38.4833C38.6833 359 38.9033 358.84 38.9033 358.62V353.96C38.9033 352.48 39.8633 351.46 41.3233 351.46C42.8033 351.46 43.6633 352.44 43.6633 353.96V358.62ZM52.6616 349.08C49.7016 349.08 47.5816 351.36 47.5816 354.22C47.5816 357.08 49.7016 359.28 52.7216 359.28C53.7016 359.28 54.5216 359.08 55.2216 358.76C55.9416 358.42 56.5616 357.92 56.9816 357.36C57.1016 357.2 57.1016 356.98 56.8816 356.84L55.4616 355.96C55.2416 355.84 55.0816 355.9 54.9416 356.06C54.6616 356.38 54.4016 356.6 54.0616 356.78C53.7016 356.96 53.2816 357.08 52.7616 357.08C51.4616 357.08 50.3816 356.18 50.2416 354.82H57.1216C57.4816 354.82 57.5816 354.62 57.5816 354.38V353.9C57.5816 351.34 55.6416 349.08 52.6616 349.08ZM55.0416 353.18H50.3016C50.5616 351.96 51.5216 351.16 52.6816 351.16C53.7816 351.16 54.8016 351.86 55.0416 353.18ZM66.782 349.08C64.302 349.08 62.702 350.42 62.702 352.16C62.702 353.72 63.742 354.7 65.302 355.02L66.842 355.34C67.842 355.54 68.382 355.74 68.382 356.3C68.382 356.8 67.882 357.26 66.842 357.26C65.822 357.26 65.022 356.82 64.382 356.26C64.142 356.06 63.862 355.9 63.482 356.2L62.742 356.8C62.342 357.12 62.302 357.58 63.042 358.14C63.802 358.72 65.042 359.28 66.722 359.28C69.262 359.28 71.022 357.92 71.022 356.06C71.022 354.32 69.782 353.5 68.082 353.18L66.502 352.88C65.622 352.72 65.282 352.42 65.282 351.96C65.282 351.5 65.842 351.1 66.722 351.1C67.562 351.1 68.382 351.48 69.002 351.92C69.362 352.14 69.662 352.14 69.902 351.86L70.542 351.1C70.762 350.84 70.802 350.54 70.522 350.3C69.902 349.76 68.622 349.08 66.782 349.08ZM71.898 354.18C71.898 357.06 74.138 359.28 77.038 359.28C79.018 359.28 80.578 358.32 81.378 357C81.538 356.74 81.418 356.44 81.198 356.28L80.218 355.52C79.878 355.26 79.578 355.38 79.378 355.64C78.738 356.42 78.118 356.88 77.078 356.88C75.578 356.88 74.498 355.68 74.498 354.18C74.498 352.68 75.578 351.48 77.078 351.48C78.118 351.48 78.738 351.94 79.378 352.72C79.578 352.98 79.878 353.1 80.218 352.84L81.198 352.08C81.418 351.92 81.538 351.62 81.378 351.36C80.578 350.04 79.018 349.08 77.038 349.08C74.138 349.08 71.898 351.3 71.898 354.18ZM84.7714 354.18C84.7714 352.68 85.8914 351.48 87.3714 351.48C88.8514 351.48 89.9514 352.68 89.9514 354.18C89.9514 355.68 88.8514 356.9 87.3714 356.9C85.8914 356.9 84.7714 355.68 84.7714 354.18ZM82.1714 354.16C82.1714 357.26 84.4714 359.28 86.9914 359.28C88.3514 359.28 89.4514 358.66 89.9514 357.82V358.6C89.9514 358.82 90.1314 359 90.3514 359H92.1114C92.3314 359 92.5114 358.82 92.5114 358.6V349.78C92.5114 349.54 92.3314 349.36 92.1114 349.36H90.3514C90.1514 349.36 89.9514 349.54 89.9514 349.78V350.54C89.4714 349.7 88.3714 349.08 87.0114 349.08C84.4714 349.08 82.1714 351.06 82.1714 354.16ZM96.8888 359H98.1688C98.3688 359 98.6888 358.92 98.6888 358.5V357.24C98.6888 356.96 98.4888 356.86 98.2888 356.86H97.7088C97.2288 356.86 96.9888 356.56 96.9888 356.1V345.42C96.9888 345.2 96.8088 345 96.5688 345H94.8288C94.5888 345 94.4088 345.2 94.4088 345.42V356.6C94.4088 358.06 95.1688 359 96.8888 359ZM104.283 349.08C101.323 349.08 99.2027 351.36 99.2027 354.22C99.2027 357.08 101.323 359.28 104.343 359.28C105.323 359.28 106.143 359.08 106.843 358.76C107.563 358.42 108.183 357.92 108.603 357.36C108.723 357.2 108.723 356.98 108.503 356.84L107.083 355.96C106.863 355.84 106.703 355.9 106.563 356.06C106.283 356.38 106.023 356.6 105.683 356.78C105.323 356.96 104.903 357.08 104.383 357.08C103.083 357.08 102.003 356.18 101.863 354.82H108.743C109.103 354.82 109.203 354.62 109.203 354.38V353.9C109.203 351.34 107.263 349.08 104.283 349.08ZM106.663 353.18H101.923C102.183 351.96 103.143 351.16 104.303 351.16C105.403 351.16 106.423 351.86 106.663 353.18ZM117.243 353.78C117.243 352.48 118.023 351.46 119.423 351.46C120.823 351.46 121.483 352.48 121.483 353.78V358.62C121.483 358.84 121.703 359 121.903 359H123.643C123.843 359 124.063 358.84 124.063 358.62V353.78C124.063 352.48 124.823 351.46 126.223 351.46C127.623 351.46 128.283 352.48 128.283 353.78V358.62C128.283 358.84 128.483 359 128.703 359H130.443C130.663 359 130.863 358.84 130.863 358.62V353.16C130.863 351.08 129.563 349.08 126.743 349.08C125.503 349.08 124.223 349.56 123.323 350.78C122.783 349.76 121.683 349.08 120.243 349.08C118.943 349.08 117.803 349.7 117.243 350.5V349.74C117.243 349.54 117.023 349.36 116.823 349.36H115.063C114.843 349.36 114.663 349.54 114.663 349.78V358.6C114.663 358.82 114.843 359 115.063 359H116.823C117.023 359 117.243 358.84 117.243 358.62V353.78ZM134.81 354.18C134.81 352.68 135.93 351.48 137.41 351.48C138.89 351.48 139.99 352.68 139.99 354.18C139.99 355.68 138.89 356.9 137.41 356.9C135.93 356.9 134.81 355.68 134.81 354.18ZM132.21 354.16C132.21 357.26 134.51 359.28 137.03 359.28C138.39 359.28 139.49 358.66 139.99 357.82V358.6C139.99 358.82 140.17 359 140.39 359H142.15C142.37 359 142.55 358.82 142.55 358.6V349.78C142.55 349.54 142.37 349.36 142.15 349.36H140.39C140.19 349.36 139.99 349.54 139.99 349.78V350.54C139.51 349.7 138.41 349.08 137.05 349.08C134.51 349.08 132.21 351.06 132.21 354.16ZM146.488 363.6C148.388 363.6 149.588 362.48 150.148 360.76L153.628 349.98C153.748 349.62 153.628 349.36 153.268 349.36H151.288C150.988 349.36 150.828 349.56 150.768 349.78L148.788 356.66L146.688 349.78C146.628 349.56 146.488 349.36 146.248 349.36H144.188C143.748 349.36 143.688 349.66 143.768 349.98L146.688 358.6C146.768 358.84 146.928 359 147.188 359H148.088L147.608 360.36C147.388 360.96 146.928 361.38 146.308 361.38C145.828 361.38 145.428 361.18 145.088 360.92C144.848 360.74 144.508 360.7 144.268 361.02L143.648 361.88C143.468 362.12 143.488 362.42 143.668 362.6C144.328 363.22 145.348 363.6 146.488 363.6ZM166.046 358.62C166.046 358.84 166.246 359 166.466 359H168.206C168.426 359 168.626 358.84 168.626 358.62V353.26C168.626 350.88 167.046 349.08 164.486 349.08C162.946 349.08 161.846 349.72 161.286 350.5V349.74C161.286 349.54 161.066 349.36 160.866 349.36H159.106C158.886 349.36 158.706 349.54 158.706 349.78V358.6C158.706 358.82 158.886 359 159.106 359H160.866C161.066 359 161.286 358.84 161.286 358.62V353.96C161.286 352.48 162.246 351.46 163.706 351.46C165.186 351.46 166.046 352.44 166.046 353.96V358.62ZM169.944 354.2C169.944 357.06 172.244 359.28 175.124 359.28C178.004 359.28 180.304 357.06 180.304 354.2C180.304 351.32 178.004 349.08 175.124 349.08C172.244 349.08 169.944 351.32 169.944 354.2ZM172.544 354.18C172.544 352.68 173.644 351.48 175.124 351.48C176.604 351.48 177.704 352.68 177.704 354.18C177.704 355.68 176.604 356.88 175.124 356.88C173.644 356.88 172.544 355.68 172.544 354.18ZM187.818 356.6C187.638 356.34 187.338 356.34 187.038 356.52C186.698 356.74 186.358 356.82 186.118 356.82C185.658 356.82 185.018 356.56 185.018 355.58V351.52H187.818C188.038 351.52 188.238 351.32 188.238 351.1V349.78C188.238 349.54 188.038 349.36 187.818 349.36H185.018V346.68C185.018 346.44 184.838 346.26 184.618 346.26H182.858C182.618 346.26 182.438 346.44 182.438 346.68V349.36H181.118C180.898 349.36 180.718 349.54 180.718 349.78V351.1C180.718 351.32 180.898 351.52 181.118 351.52H182.438V356.16C182.438 358.32 184.038 359.2 185.638 359.2C186.738 359.2 187.738 358.86 188.358 358.24C188.538 358.06 188.578 357.82 188.418 357.58L187.818 356.6ZM34.3 375.16C34.3 372.08 32.02 370.08 29.52 370.08C28.14 370.08 27.02 370.7 26.54 371.5V366.4C26.54 366.18 26.34 366 26.12 366H24.38C24.14 366 23.96 366.18 23.96 366.4V379.6C23.96 379.82 24.14 380 24.38 380H26.12C26.34 380 26.52 379.82 26.52 379.6V378.82C27.08 379.66 28.12 380.28 29.48 380.28C32.02 380.28 34.3 378.26 34.3 375.16ZM31.7 375.18C31.7 376.68 30.58 377.9 29.1 377.9C27.62 377.9 26.52 376.68 26.52 375.18C26.52 373.68 27.62 372.48 29.1 372.48C30.58 372.48 31.7 373.68 31.7 375.18ZM40.3373 370.08C37.3773 370.08 35.2573 372.36 35.2573 375.22C35.2573 378.08 37.3773 380.28 40.3973 380.28C41.3773 380.28 42.1973 380.08 42.8973 379.76C43.6173 379.42 44.2373 378.92 44.6573 378.36C44.7773 378.2 44.7773 377.98 44.5573 377.84L43.1373 376.96C42.9173 376.84 42.7573 376.9 42.6173 377.06C42.3373 377.38 42.0773 377.6 41.7373 377.78C41.3773 377.96 40.9573 378.08 40.4373 378.08C39.1373 378.08 38.0573 377.18 37.9173 375.82H44.7973C45.1573 375.82 45.2573 375.62 45.2573 375.38V374.9C45.2573 372.34 43.3173 370.08 40.3373 370.08ZM42.7173 374.18H37.9773C38.2373 372.96 39.1973 372.16 40.3573 372.16C41.4573 372.16 42.4773 372.86 42.7173 374.18ZM50.2378 375.18C50.2378 378.06 52.4778 380.28 55.3778 380.28C57.3578 380.28 58.9178 379.32 59.7178 378C59.8778 377.74 59.7578 377.44 59.5378 377.28L58.5578 376.52C58.2178 376.26 57.9178 376.38 57.7178 376.64C57.0778 377.42 56.4578 377.88 55.4178 377.88C53.9178 377.88 52.8378 376.68 52.8378 375.18C52.8378 373.68 53.9178 372.48 55.4178 372.48C56.4578 372.48 57.0778 372.94 57.7178 373.72C57.9178 373.98 58.2178 374.1 58.5578 373.84L59.5378 373.08C59.7578 372.92 59.8778 372.62 59.7178 372.36C58.9178 371.04 57.3578 370.08 55.3778 370.08C52.4778 370.08 50.2378 372.3 50.2378 375.18ZM63.1113 375.18C63.1113 373.68 64.2313 372.48 65.7113 372.48C67.1913 372.48 68.2913 373.68 68.2913 375.18C68.2913 376.68 67.1913 377.9 65.7113 377.9C64.2313 377.9 63.1113 376.68 63.1113 375.18ZM60.5113 375.16C60.5113 378.26 62.8113 380.28 65.3313 380.28C66.6913 380.28 67.7913 379.66 68.2913 378.82V379.6C68.2913 379.82 68.4713 380 68.6913 380H70.4513C70.6713 380 70.8513 379.82 70.8513 379.6V370.78C70.8513 370.54 70.6713 370.36 70.4513 370.36H68.6913C68.4913 370.36 68.2913 370.54 68.2913 370.78V371.54C67.8113 370.7 66.7113 370.08 65.3513 370.08C62.8113 370.08 60.5113 372.06 60.5113 375.16ZM75.2286 380H76.5086C76.7086 380 77.0286 379.92 77.0286 379.5V378.24C77.0286 377.96 76.8286 377.86 76.6286 377.86H76.0486C75.5686 377.86 75.3286 377.56 75.3286 377.1V366.42C75.3286 366.2 75.1486 366 74.9086 366H73.1686C72.9286 366 72.7486 366.2 72.7486 366.42V377.6C72.7486 379.06 73.5086 380 75.2286 380ZM79.4202 369.1C80.3002 369.1 81.0202 368.36 81.0202 367.48C81.0202 366.6 80.3002 365.86 79.4202 365.86C78.5202 365.86 77.8002 366.6 77.8002 367.48C77.8002 368.36 78.5202 369.1 79.4202 369.1ZM80.2802 380C80.5202 380 80.7002 379.8 80.7002 379.58V370.78C80.7002 370.54 80.5202 370.36 80.2802 370.36H78.5402C78.3002 370.36 78.1202 370.54 78.1202 370.78V379.58C78.1202 379.8 78.3002 380 78.5402 380H80.2802ZM92.9523 375.16C92.9523 372.08 90.6723 370.08 88.1723 370.08C86.7923 370.08 85.6723 370.7 85.1923 371.5V366.4C85.1923 366.18 84.9923 366 84.7723 366H83.0323C82.7923 366 82.6123 366.18 82.6123 366.4V379.6C82.6123 379.82 82.7923 380 83.0323 380H84.7723C84.9923 380 85.1723 379.82 85.1723 379.6V378.82C85.7323 379.66 86.7723 380.28 88.1323 380.28C90.6723 380.28 92.9523 378.26 92.9523 375.16ZM90.3523 375.18C90.3523 376.68 89.2323 377.9 87.7523 377.9C86.2723 377.9 85.1723 376.68 85.1723 375.18C85.1723 373.68 86.2723 372.48 87.7523 372.48C89.2323 372.48 90.3523 373.68 90.3523 375.18ZM99.2097 370.24C98.1897 370.24 97.3497 370.8 96.8497 371.66V370.74C96.8497 370.54 96.6497 370.36 96.4497 370.36H94.7897C94.5697 370.36 94.3897 370.54 94.3897 370.78V379.6C94.3897 379.82 94.5697 380 94.7897 380H96.5497C96.7497 380 96.9697 379.84 96.9697 379.62V375.28C96.9697 373.62 97.7097 372.96 98.9897 372.96H99.4697C99.6297 372.96 99.9497 372.86 99.9497 372.46V370.74C99.9497 370.34 99.6897 370.24 99.4897 370.24H99.2097ZM102.975 375.18C102.975 373.68 104.095 372.48 105.575 372.48C107.055 372.48 108.155 373.68 108.155 375.18C108.155 376.68 107.055 377.9 105.575 377.9C104.095 377.9 102.975 376.68 102.975 375.18ZM100.375 375.16C100.375 378.26 102.675 380.28 105.195 380.28C106.555 380.28 107.655 379.66 108.155 378.82V379.6C108.155 379.82 108.335 380 108.555 380H110.315C110.535 380 110.715 379.82 110.715 379.6V370.78C110.715 370.54 110.535 370.36 110.315 370.36H108.555C108.355 370.36 108.155 370.54 108.155 370.78V371.54C107.675 370.7 106.575 370.08 105.215 370.08C102.675 370.08 100.375 372.06 100.375 375.16ZM118.892 377.6C118.712 377.34 118.412 377.34 118.112 377.52C117.772 377.74 117.432 377.82 117.192 377.82C116.732 377.82 116.092 377.56 116.092 376.58V372.52H118.892C119.112 372.52 119.312 372.32 119.312 372.1V370.78C119.312 370.54 119.112 370.36 118.892 370.36H116.092V367.68C116.092 367.44 115.912 367.26 115.692 367.26H113.932C113.692 367.26 113.512 367.44 113.512 367.68V370.36H112.192C111.972 370.36 111.792 370.54 111.792 370.78V372.1C111.792 372.32 111.972 372.52 112.192 372.52H113.512V377.16C113.512 379.32 115.112 380.2 116.712 380.2C117.812 380.2 118.812 379.86 119.432 379.24C119.612 379.06 119.652 378.82 119.492 378.58L118.892 377.6ZM125.083 370.08C122.123 370.08 120.003 372.36 120.003 375.22C120.003 378.08 122.123 380.28 125.143 380.28C126.123 380.28 126.943 380.08 127.643 379.76C128.363 379.42 128.983 378.92 129.403 378.36C129.523 378.2 129.523 377.98 129.303 377.84L127.883 376.96C127.663 376.84 127.503 376.9 127.363 377.06C127.083 377.38 126.823 377.6 126.483 377.78C126.123 377.96 125.703 378.08 125.183 378.08C123.883 378.08 122.803 377.18 122.663 375.82H129.543C129.903 375.82 130.003 375.62 130.003 375.38V374.9C130.003 372.34 128.063 370.08 125.083 370.08ZM127.463 374.18H122.723C122.983 372.96 123.943 372.16 125.103 372.16C126.203 372.16 127.223 372.86 127.463 374.18ZM133.404 375.18C133.404 373.68 134.524 372.48 136.004 372.48C137.484 372.48 138.584 373.68 138.584 375.18C138.584 376.68 137.484 377.9 136.004 377.9C134.524 377.9 133.404 376.68 133.404 375.18ZM130.804 375.16C130.804 378.26 133.084 380.28 135.624 380.28C136.984 380.28 138.024 379.66 138.584 378.82V379.6C138.584 379.82 138.764 380 138.984 380H140.724C140.964 380 141.144 379.82 141.144 379.6V366.4C141.144 366.18 140.964 366 140.724 366H138.984C138.764 366 138.564 366.18 138.564 366.4V371.5C138.084 370.7 136.964 370.08 135.584 370.08C133.084 370.08 130.804 372.08 130.804 375.16Z" fill="#125430"/>
<path d="M605.269 89.6087L580.494 45.6298C578.382 41.7889 572.621 41.7889 570.508 45.6298L545.734 89.6087C543.621 93.4496 546.31 98.2508 550.727 98.2508H600.083C604.692 98.0588 607.381 93.4496 605.269 89.6087Z" fill="#125430"/>
<path d="M575.501 48.5105L587.888 70.4999L600.275 92.4894H550.727L575.501 48.5105Z" fill="#D3D800"/>
<path d="M571.468 68.6756L573.005 78.8541C573.197 80.0064 574.157 80.9666 575.501 80.9666C576.654 80.9666 577.806 80.0064 577.998 78.8541L579.534 68.6756C579.918 66.1789 577.998 64.0665 575.501 64.0665C573.005 64.0663 571.276 66.1789 571.468 68.6756Z" fill="#125430"/>
<path d="M575.501 87.6883C576.774 87.6883 577.806 86.6565 577.806 85.3837C577.806 84.1109 576.774 83.079 575.501 83.079C574.228 83.079 573.197 84.1109 573.197 85.3837C573.197 86.6565 574.228 87.6883 575.501 87.6883Z" fill="#125430"/>
</g>
<defs>
<filter id="filter0_d" x="19" y="396" width="136" height="40" filterUnits="userSpaceOnUse" color-interpolation-filters="sRGB">
<feFlood flood-opacity="0" result="BackgroundImageFix"/>
<feColorMatrix in="SourceAlpha" type="matrix" values="0 0 0 0 0 0 0 0 0 0 0 0 0 0 0 0 0 0 127 0"/>
<feOffset dy="2"/>
<feGaussianBlur stdDeviation="2"/>
<feColorMatrix type="matrix" values="0 0 0 0 0.45 0 0 0 0 0.45 0 0 0 0 0.45 0 0 0 0.2 0"/>
<feBlend mode="normal" in2="BackgroundImageFix" result="effect1_dropShadow"/>
<feBlend mode="normal" in="SourceGraphic" in2="effect1_dropShadow" result="shape"/>
</filter>
<clipPath id="clip0">
<rect width="635" height="476" fill="white"/>
</clipPath>
</defs>
</svg>
