<svg width="635" height="476" viewBox="0 0 635 476" fill="none" xmlns="http://www.w3.org/2000/svg">
<g clip-path="url(#clip0)">
<path d="M635 0H0V476H635V0Z" fill="#D3D800"/>
<path d="M611.103 279.832L677.881 242.949C681.547 241.01 683 237.167 683 233.323V218.338C683 215.27 680.094 212.943 676.791 214.494L606.017 251.024L535.209 214.494C532.303 212.943 529 215.27 529 218.338V233.323C529 237.167 530.453 241.01 534.119 242.949L600.897 279.867C603.804 281.383 607.833 281.383 611.103 279.832Z" fill="#BAD350"/>
<path d="M611.103 329.841L677.881 292.357C681.547 290.424 683 286.522 683 282.619V267.404C683 264.289 680.094 261.927 676.791 263.502L605.983 300.592L535.209 263.502C532.303 261.927 529 264.289 529 267.404V282.619C529 286.522 530.453 290.424 534.119 292.393L600.897 329.877C603.804 331.38 607.833 331.38 611.103 329.841Z" fill="#94C750"/>
<path d="M611.103 379.815L677.881 342.382C681.547 340.413 683 336.513 683 332.612V317.402C683 314.289 680.094 311.927 676.791 313.502L605.983 350.577L535.209 313.502C532.303 311.927 529 314.289 529 317.402V332.612C529 336.512 530.453 340.413 534.119 342.382L600.897 379.85C603.804 381.389 607.833 381.389 611.103 379.815Z" fill="#6EBB52"/>
<path d="M611.103 428.863L677.881 391.948C681.547 390.044 683 386.2 683 382.357V367.373C683 364.305 680.094 361.978 676.791 363.529L605.983 400.057L535.209 363.494C532.303 361.943 529 364.27 529 367.337V382.322C529 386.165 530.453 390.008 534.119 391.948L600.897 428.863C603.804 430.379 607.833 430.379 611.103 428.863Z" fill="#59B154"/>
<path d="M611.103 478.836L677.881 441.951C681.547 440.012 683 436.168 683 432.325V417.338C683 414.27 680.094 411.943 676.791 413.494L605.983 450.027L535.209 413.494C532.303 411.943 529 414.27 529 417.338V432.325C529 436.168 530.453 440.012 534.119 441.951L600.897 478.836C603.804 480.388 607.833 480.388 611.103 478.836Z" fill="#00AB4E"/>
<path d="M61.28 73V47.26C61.28 46.6 60.68 46 60.02 46H54.56C53.84 46 53.24 46.6 53.24 47.26V72.52C53.24 78.1 49.76 81.52 43.88 81.52C38 81.52 34.58 78.1 34.58 72.52V47.26C34.58 46.6 33.98 46 33.26 46H27.8C27.08 46 26.54 46.6 26.54 47.26V73.06C26.54 83.98 34.82 88.84 43.88 88.84C53 88.84 61.28 83.92 61.28 73ZM89.7359 86.86C89.7359 87.52 90.3359 88 90.9959 88H96.2159C96.8759 88 97.4759 87.52 97.4759 86.86V70.78C97.4759 63.64 92.7359 58.24 85.0559 58.24C80.4359 58.24 77.1359 60.16 75.4559 62.5V60.22C75.4559 59.62 74.7959 59.08 74.1959 59.08H68.9159C68.2559 59.08 67.7159 59.62 67.7159 60.34V86.8C67.7159 87.46 68.2559 88 68.9159 88H74.1959C74.7959 88 75.4559 87.52 75.4559 86.86V72.88C75.4559 68.44 78.3359 65.38 82.7159 65.38C87.1559 65.38 89.7359 68.32 89.7359 72.88V86.86ZM109.291 73.54C109.291 69.04 112.651 65.44 117.091 65.44C121.531 65.44 124.831 69.04 124.831 73.54C124.831 78.04 121.531 81.7 117.091 81.7C112.651 81.7 109.291 78.04 109.291 73.54ZM101.491 73.48C101.491 82.78 108.391 88.84 115.951 88.84C120.031 88.84 123.331 86.98 124.831 84.46V86.8C124.831 87.46 125.371 88 126.031 88H131.311C131.971 88 132.511 87.46 132.511 86.8V60.34C132.511 59.62 131.971 59.08 131.311 59.08H126.031C125.431 59.08 124.831 59.62 124.831 60.34V62.62C123.391 60.1 120.091 58.24 116.011 58.24C108.391 58.24 101.491 64.18 101.491 73.48ZM169.283 73.48C169.283 64.24 162.443 58.24 154.943 58.24C150.803 58.24 147.443 60.1 146.003 62.5V47.2C146.003 46.54 145.403 46 144.743 46H139.523C138.803 46 138.263 46.54 138.263 47.2V86.8C138.263 87.46 138.803 88 139.523 88H144.743C145.403 88 145.943 87.46 145.943 86.8V84.46C147.623 86.98 150.743 88.84 154.823 88.84C162.443 88.84 169.283 82.78 169.283 73.48ZM161.483 73.54C161.483 78.04 158.123 81.7 153.683 81.7C149.243 81.7 145.943 78.04 145.943 73.54C145.943 69.04 149.243 65.44 153.683 65.44C158.123 65.44 161.483 69.04 161.483 73.54ZM180.975 88H184.815C185.415 88 186.375 87.76 186.375 86.5V82.72C186.375 81.88 185.775 81.58 185.175 81.58H183.435C181.995 81.58 181.275 80.68 181.275 79.3V47.26C181.275 46.6 180.735 46 180.015 46H174.795C174.075 46 173.535 46.6 173.535 47.26V80.8C173.535 85.18 175.815 88 180.975 88ZM203.157 58.24C194.277 58.24 187.917 65.08 187.917 73.66C187.917 82.24 194.277 88.84 203.337 88.84C206.277 88.84 208.737 88.24 210.837 87.28C212.997 86.26 214.857 84.76 216.117 83.08C216.477 82.6 216.477 81.94 215.817 81.52L211.557 78.88C210.897 78.52 210.417 78.7 209.997 79.18C209.157 80.14 208.377 80.8 207.357 81.34C206.277 81.88 205.017 82.24 203.457 82.24C199.557 82.24 196.317 79.54 195.897 75.46H216.537C217.617 75.46 217.917 74.86 217.917 74.14V72.7C217.917 65.02 212.097 58.24 203.157 58.24ZM210.297 70.54H196.077C196.857 66.88 199.737 64.48 203.217 64.48C206.517 64.48 209.577 66.58 210.297 70.54ZM252.023 80.8C251.483 80.02 250.583 80.02 249.683 80.56C248.663 81.22 247.643 81.46 246.923 81.46C245.543 81.46 243.623 80.68 243.623 77.74V65.56H252.023C252.683 65.56 253.283 64.96 253.283 64.3V60.34C253.283 59.62 252.683 59.08 252.023 59.08H243.623V51.04C243.623 50.32 243.083 49.78 242.423 49.78H237.143C236.423 49.78 235.883 50.32 235.883 51.04V59.08H231.923C231.263 59.08 230.723 59.62 230.723 60.34V64.3C230.723 64.96 231.263 65.56 231.923 65.56H235.883V79.48C235.883 85.96 240.683 88.6 245.483 88.6C248.783 88.6 251.783 87.58 253.643 85.72C254.183 85.18 254.303 84.46 253.823 83.74L252.023 80.8ZM255.298 73.6C255.298 82.18 262.198 88.84 270.838 88.84C279.478 88.84 286.378 82.18 286.378 73.6C286.378 64.96 279.478 58.24 270.838 58.24C262.198 58.24 255.298 64.96 255.298 73.6ZM263.098 73.54C263.098 69.04 266.398 65.44 270.838 65.44C275.278 65.44 278.578 69.04 278.578 73.54C278.578 78.04 275.278 81.64 270.838 81.64C266.398 81.64 263.098 78.04 263.098 73.54ZM33.26 155H37.1C37.7 155 38.66 154.76 38.66 153.5V149.72C38.66 148.88 38.06 148.58 37.46 148.58H35.72C34.28 148.58 33.56 147.68 33.56 146.3V114.26C33.56 113.6 33.02 113 32.3 113H27.08C26.36 113 25.82 113.6 25.82 114.26V147.8C25.82 152.18 28.1 155 33.26 155ZM40.1417 140.6C40.1417 149.18 47.0417 155.84 55.6817 155.84C64.3217 155.84 71.2217 149.18 71.2217 140.6C71.2217 131.96 64.3217 125.24 55.6817 125.24C47.0417 125.24 40.1417 131.96 40.1417 140.6ZM47.9417 140.54C47.9417 136.04 51.2417 132.44 55.6817 132.44C60.1217 132.44 63.4217 136.04 63.4217 140.54C63.4217 145.04 60.1217 148.64 55.6817 148.64C51.2417 148.64 47.9417 145.04 47.9417 140.54ZM74.0689 140.54C74.0689 149.18 80.7889 155.84 89.4889 155.84C95.4289 155.84 100.109 152.96 102.509 149C102.989 148.22 102.629 147.32 101.969 146.84L99.0289 144.56C98.0089 143.78 97.1089 144.14 96.5089 144.92C94.5889 147.26 92.7289 148.64 89.6089 148.64C85.1089 148.64 81.8689 145.04 81.8689 140.54C81.8689 136.04 85.1089 132.44 89.6089 132.44C92.7289 132.44 94.5889 133.82 96.5089 136.16C97.1089 136.94 98.0089 137.3 99.0289 136.52L101.969 134.24C102.629 133.76 102.989 132.86 102.509 132.08C100.109 128.12 95.4289 125.24 89.4889 125.24C80.7889 125.24 74.0689 131.9 74.0689 140.54ZM112.689 140.54C112.689 136.04 116.049 132.44 120.489 132.44C124.929 132.44 128.229 136.04 128.229 140.54C128.229 145.04 124.929 148.7 120.489 148.7C116.049 148.7 112.689 145.04 112.689 140.54ZM104.889 140.48C104.889 149.78 111.789 155.84 119.349 155.84C123.429 155.84 126.729 153.98 128.229 151.46V153.8C128.229 154.46 128.769 155 129.429 155H134.709C135.369 155 135.909 154.46 135.909 153.8V127.34C135.909 126.62 135.369 126.08 134.709 126.08H129.429C128.829 126.08 128.229 126.62 128.229 127.34V129.62C126.789 127.1 123.489 125.24 119.409 125.24C111.789 125.24 104.889 131.18 104.889 140.48ZM160.441 147.8C159.901 147.02 159.001 147.02 158.101 147.56C157.081 148.22 156.061 148.46 155.341 148.46C153.961 148.46 152.041 147.68 152.041 144.74V132.56H160.441C161.101 132.56 161.701 131.96 161.701 131.3V127.34C161.701 126.62 161.101 126.08 160.441 126.08H152.041V118.04C152.041 117.32 151.501 116.78 150.841 116.78H145.561C144.841 116.78 144.301 117.32 144.301 118.04V126.08H140.341C139.681 126.08 139.141 126.62 139.141 127.34V131.3C139.141 131.96 139.681 132.56 140.341 132.56H144.301V146.48C144.301 152.96 149.101 155.6 153.901 155.6C157.201 155.6 160.201 154.58 162.061 152.72C162.601 152.18 162.721 151.46 162.241 150.74L160.441 147.8ZM179.016 125.24C170.136 125.24 163.776 132.08 163.776 140.66C163.776 149.24 170.136 155.84 179.196 155.84C182.136 155.84 184.596 155.24 186.696 154.28C188.856 153.26 190.716 151.76 191.976 150.08C192.336 149.6 192.336 148.94 191.676 148.52L187.416 145.88C186.756 145.52 186.276 145.7 185.856 146.18C185.016 147.14 184.236 147.8 183.216 148.34C182.136 148.88 180.876 149.24 179.316 149.24C175.416 149.24 172.176 146.54 171.756 142.46H192.396C193.476 142.46 193.776 141.86 193.776 141.14V139.7C193.776 132.02 187.956 125.24 179.016 125.24ZM186.156 137.54H171.936C172.716 133.88 175.596 131.48 179.076 131.48C182.376 131.48 185.436 133.58 186.156 137.54ZM214.057 122.3C216.697 122.3 218.857 120.08 218.857 117.44C218.857 114.8 216.697 112.58 214.057 112.58C211.357 112.58 209.197 114.8 209.197 117.44C209.197 120.08 211.357 122.3 214.057 122.3ZM216.637 155C217.357 155 217.897 154.4 217.897 153.74V127.34C217.897 126.62 217.357 126.08 216.637 126.08H211.417C210.697 126.08 210.157 126.62 210.157 127.34V153.74C210.157 154.4 210.697 155 211.417 155H216.637ZM242.414 147.8C241.874 147.02 240.974 147.02 240.074 147.56C239.054 148.22 238.034 148.46 237.314 148.46C235.934 148.46 234.014 147.68 234.014 144.74V132.56H242.414C243.074 132.56 243.674 131.96 243.674 131.3V127.34C243.674 126.62 243.074 126.08 242.414 126.08H234.014V118.04C234.014 117.32 233.474 116.78 232.814 116.78H227.534C226.814 116.78 226.274 117.32 226.274 118.04V126.08H222.314C221.654 126.08 221.114 126.62 221.114 127.34V131.3C221.114 131.96 221.654 132.56 222.314 132.56H226.274V146.48C226.274 152.96 231.074 155.6 235.874 155.6C239.174 155.6 242.174 154.58 244.034 152.72C244.574 152.18 244.694 151.46 244.214 150.74L242.414 147.8ZM260.989 125.24C252.109 125.24 245.749 132.08 245.749 140.66C245.749 149.24 252.109 155.84 261.169 155.84C264.109 155.84 266.569 155.24 268.669 154.28C270.829 153.26 272.689 151.76 273.949 150.08C274.309 149.6 274.309 148.94 273.649 148.52L269.389 145.88C268.729 145.52 268.249 145.7 267.829 146.18C266.989 147.14 266.209 147.8 265.189 148.34C264.109 148.88 262.849 149.24 261.289 149.24C257.389 149.24 254.149 146.54 253.729 142.46H274.369C275.449 142.46 275.749 141.86 275.749 141.14V139.7C275.749 132.02 269.929 125.24 260.989 125.24ZM268.129 137.54H253.909C254.689 133.88 257.569 131.48 261.049 131.48C264.349 131.48 267.409 133.58 268.129 137.54ZM287.331 139.34C287.331 135.44 289.671 132.38 293.871 132.38C298.071 132.38 300.051 135.44 300.051 139.34V153.86C300.051 154.52 300.711 155 301.311 155H306.531C307.131 155 307.791 154.52 307.791 153.86V139.34C307.791 135.44 310.071 132.38 314.271 132.38C318.471 132.38 320.451 135.44 320.451 139.34V153.86C320.451 154.52 321.051 155 321.711 155H326.931C327.591 155 328.191 154.52 328.191 153.86V137.48C328.191 131.24 324.291 125.24 315.831 125.24C312.111 125.24 308.271 126.68 305.571 130.34C303.951 127.28 300.651 125.24 296.331 125.24C292.431 125.24 289.011 127.1 287.331 129.5V127.22C287.331 126.62 286.671 126.08 286.071 126.08H280.791C280.131 126.08 279.591 126.62 279.591 127.34V153.8C279.591 154.46 280.131 155 280.791 155H286.071C286.671 155 287.331 154.52 287.331 153.86V139.34ZM343.213 114.26C343.213 113.6 342.613 113 341.893 113H336.313C335.593 113 334.993 113.6 334.993 114.26L335.173 139.52C335.173 140.18 335.713 140.78 336.433 140.78H341.773C342.493 140.78 343.093 140.18 343.093 139.52L343.213 114.26ZM339.073 155.84C342.013 155.84 344.413 153.44 344.413 150.56C344.413 147.62 342.013 145.22 339.073 145.22C336.193 145.22 333.793 147.62 333.793 150.56C333.793 153.44 336.193 155.84 339.073 155.84ZM44.96 208.62C53.72 208.62 59.12 202.14 59.3 194.34C59.3 186.66 53.84 180 44.96 180H27.32C26.48 180 25.82 180.66 25.82 181.44V220.56C25.82 221.4 26.48 222 27.32 222H35.18C35.96 222 36.62 221.4 36.62 220.56V208.62H44.96ZM48.02 194.28C48.02 197.1 45.98 199.14 43.1 199.2H36.62V189.42H43.1C45.98 189.42 48.02 191.46 48.02 194.28ZM69.8741 222H74.7941C75.5141 222 76.7141 221.82 76.7141 220.2V214.74C76.7141 213.72 76.0541 213.42 75.3941 213.42H73.3541C72.6941 213.42 72.2141 212.82 72.2141 212.22V181.44C72.2141 180.66 71.6141 180 70.8341 180H63.2741C62.4941 180 61.8341 180.66 61.8341 181.44V214.44C61.8341 218.52 63.8141 222 69.8741 222ZM93.7677 191.4C84.4077 191.4 77.8077 198.48 77.8077 207.36C77.8077 216 84.2277 222.9 93.7677 222.9C100.428 222.9 104.868 220.32 107.208 217.08C107.508 216.66 107.748 215.7 106.968 215.22L100.848 211.5C100.128 211.08 99.5877 211.44 99.2277 211.86C97.9077 213.3 96.3477 214.14 93.9477 214.14C91.4277 214.14 88.9077 212.52 88.4877 209.64H107.388C108.768 209.64 109.068 208.92 109.068 208.08V206.22C109.068 198.96 103.488 191.4 93.7677 191.4ZM98.8677 203.34H88.7277C89.6277 200.88 91.7877 199.62 93.8277 199.62C95.7477 199.62 98.0277 200.64 98.8677 203.34ZM121.177 207.18C121.177 203.82 123.817 201.06 127.177 201.06C130.537 201.06 133.177 203.82 133.177 207.18C133.177 210.54 130.537 213.3 127.177 213.3C123.817 213.3 121.177 210.54 121.177 207.18ZM110.737 207.06C110.737 216.84 117.997 222.9 125.557 222.9C129.097 222.9 131.977 221.58 133.237 219.72V220.62C133.237 221.4 133.837 222 134.617 222H142.117C142.897 222 143.497 221.4 143.497 220.62V193.68C143.497 192.9 142.897 192.3 142.117 192.3H134.617C133.897 192.3 133.237 192.9 133.237 193.68V194.58C131.977 192.72 129.157 191.4 125.617 191.4C118.057 191.4 110.737 197.28 110.737 207.06ZM160.16 191.4C151.82 191.4 147.08 195.96 147.08 201.42C147.08 206.34 150.32 209.22 155.24 210.3L160.28 211.38C162.62 211.86 163.76 212.34 163.76 213.42C163.76 214.2 162.74 214.98 160.88 214.98C158.24 214.98 156.02 213.72 154.28 212.28C153.38 211.5 152.42 210.96 150.92 212.1L147.5 214.62C145.82 215.88 146.12 217.92 149.48 220.02C152 221.58 155.9 222.9 160.64 222.9C169.34 222.9 174.38 218.22 174.38 212.46C174.38 206.52 169.7 204.24 164.96 203.28L160.58 202.38C158.42 201.96 157.76 201.48 157.76 200.64C157.76 199.86 158.9 199.32 160.4 199.32C162.74 199.32 165.08 200.46 166.76 201.42C168.14 202.2 169.1 202.2 170 201.24L172.76 198.24C173.72 197.16 173.78 196.14 172.64 195.18C170.9 193.62 166.58 191.4 160.16 191.4ZM192.322 191.4C182.962 191.4 176.362 198.48 176.362 207.36C176.362 216 182.782 222.9 192.322 222.9C198.982 222.9 203.422 220.32 205.762 217.08C206.062 216.66 206.302 215.7 205.522 215.22L199.402 211.5C198.682 211.08 198.142 211.44 197.782 211.86C196.462 213.3 194.902 214.14 192.502 214.14C189.982 214.14 187.462 212.52 187.042 209.64H205.942C207.322 209.64 207.622 208.92 207.622 208.08V206.22C207.622 198.96 202.042 191.4 192.322 191.4ZM197.422 203.34H187.282C188.182 200.88 190.342 199.62 192.382 199.62C194.302 199.62 196.582 200.64 197.422 203.34ZM241.45 212.58C240.85 211.62 239.77 211.62 238.75 212.28C237.79 212.88 236.89 213.12 236.35 213.12C235.81 213.12 234.01 213.06 234.01 210.36V200.88H242.05C242.83 200.88 243.49 200.22 243.49 199.44V193.68C243.49 192.9 242.83 192.3 242.05 192.3H234.01V184.98C234.01 184.2 233.41 183.6 232.63 183.6H225.07C224.29 183.6 223.63 184.2 223.63 184.98V192.3H219.97C219.19 192.3 218.59 192.9 218.59 193.68V199.44C218.59 200.22 219.19 200.88 219.97 200.88H223.63V212.94C223.63 219.96 228.97 222.78 234.37 222.78C238.09 222.78 241.81 221.52 243.85 219.18C244.51 218.52 244.63 217.68 244.03 216.72L241.45 212.58ZM262.849 191.76C260.449 191.76 258.109 192.72 256.309 195.24V193.56C256.309 192.84 255.589 192.3 254.869 192.3H247.729C246.949 192.3 246.349 192.9 246.349 193.68V220.62C246.349 221.4 246.949 222 247.729 222H255.289C256.009 222 256.729 221.46 256.729 220.74V207.84C256.729 204.42 258.169 202.8 261.649 202.8H263.389C263.989 202.8 265.249 202.56 265.249 200.94V193.56C265.249 192 264.289 191.76 263.629 191.76H262.849ZM276.551 236.22C283.211 236.22 287.771 232.5 289.571 226.2L298.691 194.64C299.111 193.2 298.751 192.3 297.371 192.3H289.031C287.951 192.3 287.471 193.02 287.291 193.74L282.911 212.34L277.991 193.74C277.811 193.02 277.331 192.3 276.551 192.3H267.911C266.111 192.3 265.931 193.44 266.291 194.64L274.511 220.56C274.751 221.34 275.351 222 276.311 222H280.091L279.071 225C278.471 226.74 277.091 227.16 275.771 227.16C274.511 227.16 273.251 226.44 272.351 225.84C271.511 225.24 270.131 225.06 269.291 226.38L266.711 230.52C266.111 231.48 266.171 232.44 266.891 233.04C269.171 234.96 272.651 236.22 276.551 236.22ZM34.4 274.18C34.4 270.82 37.04 268.06 40.4 268.06C43.76 268.06 46.4 270.82 46.4 274.18C46.4 277.54 43.76 280.3 40.4 280.3C37.04 280.3 34.4 277.54 34.4 274.18ZM23.96 274.06C23.96 283.84 31.22 289.9 38.78 289.9C42.32 289.9 45.2 288.58 46.46 286.72V287.62C46.46 288.4 47.06 289 47.84 289H55.34C56.12 289 56.72 288.4 56.72 287.62V260.68C56.72 259.9 56.12 259.3 55.34 259.3H47.84C47.12 259.3 46.46 259.9 46.46 260.68V261.58C45.2 259.72 42.38 258.4 38.84 258.4C31.28 258.4 23.96 264.28 23.96 274.06ZM70.2022 273.7C70.2022 270.34 72.9022 267.82 76.2022 267.82C79.5022 267.82 82.2022 270.34 82.2022 273.7C82.2022 277.06 79.5022 279.58 76.2022 279.58C72.9022 279.58 70.2022 277.06 70.2022 273.7ZM76.4422 294.28C73.2022 294.28 71.4622 292.48 70.7422 291.22C70.3222 290.5 69.7222 290.32 69.0622 290.5L61.3222 292.9C60.5422 293.14 60.5422 293.8 60.6622 294.22C62.1622 299.5 68.4022 303.22 76.1422 303.22C86.1622 303.22 92.5222 297.52 92.5222 289.12V260.68C92.5222 259.9 91.9222 259.3 91.1422 259.3H83.6422C82.9222 259.3 82.2622 259.9 82.2622 260.68V261.58C80.8822 259.84 77.9422 258.4 74.3422 258.4C66.7822 258.4 59.7622 264.52 59.7622 273.76C59.7622 283 66.7822 289 74.7622 289C78.2422 289 81.0622 287.68 82.2622 286.12V288.82C82.2622 292.06 80.1622 294.28 76.4422 294.28ZM105.943 274.18C105.943 270.82 108.583 268.06 111.943 268.06C115.303 268.06 117.943 270.82 117.943 274.18C117.943 277.54 115.303 280.3 111.943 280.3C108.583 280.3 105.943 277.54 105.943 274.18ZM95.503 274.06C95.503 283.84 102.763 289.9 110.323 289.9C113.863 289.9 116.743 288.58 118.003 286.72V287.62C118.003 288.4 118.603 289 119.383 289H126.883C127.663 289 128.263 288.4 128.263 287.62V260.68C128.263 259.9 127.663 259.3 126.883 259.3H119.383C118.663 259.3 118.003 259.9 118.003 260.68V261.58C116.743 259.72 113.923 258.4 110.383 258.4C102.823 258.4 95.503 264.28 95.503 274.06ZM137.545 257.32C140.785 257.32 143.485 254.62 143.485 251.38C143.485 248.14 140.785 245.44 137.545 245.44C134.305 245.44 131.605 248.14 131.605 251.38C131.605 254.62 134.305 257.32 137.545 257.32ZM141.325 289C142.105 289 142.705 288.34 142.705 287.56V260.68C142.705 259.9 142.105 259.3 141.325 259.3H133.765C132.985 259.3 132.325 259.9 132.325 260.68V287.56C132.325 288.34 132.985 289 133.765 289H141.325ZM168.698 287.74C168.698 288.46 169.418 289 170.138 289H177.638C178.358 289 179.078 288.46 179.078 287.74V271.18C179.078 264.04 174.158 258.4 166.298 258.4C161.918 258.4 158.978 260.02 157.178 261.64V260.56C157.178 259.84 156.458 259.3 155.738 259.3H148.178C147.398 259.3 146.798 259.9 146.798 260.68V287.62C146.798 288.4 147.398 289 148.178 289H155.738C156.458 289 157.178 288.46 157.178 287.74V274.12C157.178 270.46 159.518 268 162.998 268C166.478 268 168.698 270.46 168.698 274.12V287.74ZM195.013 248.44C195.013 247.66 194.353 247 193.513 247H185.713C184.873 247 184.213 247.66 184.213 248.44V272.86C184.213 273.7 184.873 274.36 185.713 274.36H193.513C194.353 274.36 195.013 273.7 195.013 272.86V248.44ZM189.613 289.9C193.093 289.9 195.973 287.02 195.973 283.6C195.973 280.12 193.093 277.24 189.613 277.24C186.133 277.24 183.313 280.12 183.313 283.6C183.313 287.02 186.133 289.9 189.613 289.9Z" fill="#125430"/>
<g filter="url(#filter0_d)">
<path d="M135 398H39C30.1634 398 23 405.163 23 414C23 422.837 30.1634 430 39 430H135C143.837 430 151 422.837 151 414C151 405.163 143.837 398 135 398Z" fill="#125430"/>
</g>
<path d="M47.4634 418.777L47.4736 416.185L49.2735 416.191C51.2535 416.198 52.2785 414.929 52.2844 413.429C52.2903 411.929 51.2753 410.654 49.2953 410.647L46.1394 410.636C45.9954 410.636 45.8869 410.755 45.8864 410.887L45.8554 418.771C45.8548 418.915 45.9623 419.036 46.1063 419.036L47.2103 419.04C47.3543 419.04 47.4628 418.921 47.4634 418.777ZM47.4791 414.769L47.4898 412.057L49.1818 412.063C49.9858 412.066 50.6197 412.584 50.6164 413.424C50.6131 414.264 49.9751 414.778 49.1711 414.775L47.4791 414.769ZM55.9364 413.214C55.3244 413.212 54.8191 413.546 54.5171 414.061L54.5192 413.509C54.5197 413.389 54.4001 413.281 54.2801 413.28L53.2841 413.277C53.1521 413.276 53.0437 413.384 53.0431 413.528L53.0223 418.82C53.0218 418.952 53.1294 419.06 53.2614 419.061L54.3174 419.065C54.4374 419.065 54.5698 418.969 54.5703 418.837L54.5805 416.233C54.5844 415.237 55.03 414.843 55.798 414.846L56.086 414.847C56.182 414.847 56.3742 414.788 56.3752 414.548L56.3792 413.516C56.3802 413.276 56.2244 413.215 56.1044 413.215L55.9364 413.214ZM56.6116 416.192C56.6048 417.908 57.9796 419.245 59.7076 419.251C61.4356 419.257 62.8208 417.93 62.8276 416.214C62.8344 414.486 61.4596 413.137 59.7317 413.131C58.0037 413.125 56.6184 414.464 56.6116 416.192ZM58.1716 416.186C58.1752 415.286 58.838 414.568 59.726 414.571C60.614 414.574 61.2712 415.297 61.2676 416.197C61.2641 417.097 60.6012 417.814 59.7133 417.811C58.8253 417.808 58.1681 417.086 58.1716 416.186ZM64.957 416.209C64.9606 415.309 65.6354 414.592 66.5234 414.595C67.4114 414.598 68.0685 415.32 68.065 416.22C68.0615 417.12 67.3986 417.85 66.5106 417.847C65.6226 417.844 64.9535 417.109 64.957 416.209ZM63.3971 416.192C63.3898 418.052 64.753 419.269 66.277 419.274C67.093 419.277 67.7184 418.907 68.0564 418.404L68.0546 418.872C68.0541 419.004 68.1616 419.112 68.2936 419.113L69.3376 419.116C69.4816 419.117 69.5901 419.009 69.5906 418.877L69.6217 410.957C69.6222 410.825 69.5147 410.717 69.3707 410.717L68.3267 410.713C68.1947 410.712 68.0742 410.82 68.0737 410.952L68.0617 414.012C67.7756 413.531 67.105 413.157 66.2771 413.154C64.7771 413.149 63.4044 414.344 63.3971 416.192ZM72.2499 413.571C72.2503 413.451 72.1308 413.342 71.9988 413.342L70.9548 413.338C70.8228 413.338 70.7023 413.445 70.7019 413.565L70.689 416.829C70.6833 418.293 71.5794 419.292 73.0554 419.297C73.9673 419.3 74.4968 418.942 74.8587 418.452L74.8569 418.908C74.8564 419.04 74.976 419.136 75.096 419.136L76.152 419.14C76.296 419.141 76.4044 419.033 76.4049 418.901L76.4257 413.609C76.4263 413.465 76.3187 413.357 76.1747 413.356L75.1187 413.352C74.9987 413.352 74.8783 413.46 74.8779 413.58L74.866 416.604C74.8628 417.408 74.3805 417.982 73.5285 417.979C72.6525 417.976 72.2348 417.41 72.2381 416.57L72.2499 413.571ZM77.2837 416.252C77.2769 417.98 78.6156 419.317 80.3556 419.323C81.5436 419.327 82.4819 418.754 82.965 417.964C83.0616 417.808 82.9903 417.628 82.8587 417.531L82.2725 417.073C82.0691 416.916 81.8888 416.988 81.7682 417.143C81.3824 417.61 81.0093 417.885 80.3853 417.883C79.4853 417.88 78.8401 417.157 78.8437 416.257C78.8472 415.357 79.498 414.64 80.398 414.643C81.022 414.645 81.3929 414.922 81.7751 415.391C81.8945 415.548 82.0742 415.621 82.2788 415.465L82.8686 415.011C83.001 414.916 83.0737 414.736 82.9783 414.58C82.5014 413.786 81.5677 413.207 80.3797 413.203C78.6397 413.197 77.2905 414.524 77.2837 416.252ZM87.5328 417.739C87.4255 417.583 87.2455 417.582 87.065 417.69C86.8605 417.821 86.6563 417.868 86.5123 417.868C86.2363 417.867 85.8529 417.71 85.8553 417.122L85.8648 414.686L87.5448 414.691C87.6768 414.692 87.7973 414.572 87.7978 414.44L87.8009 413.648C87.8015 413.504 87.6819 413.396 87.5499 413.395L85.8699 413.39L85.8763 411.782C85.8768 411.638 85.7692 411.529 85.6372 411.529L84.5813 411.525C84.4373 411.525 84.3288 411.632 84.3283 411.776L84.3219 413.384L83.5299 413.382C83.3979 413.381 83.2895 413.489 83.289 413.633L83.2858 414.425C83.2853 414.557 83.3928 414.677 83.5248 414.678L84.3168 414.68L84.3059 417.464C84.3008 418.76 85.2587 419.292 86.2187 419.295C86.8787 419.297 87.4795 419.095 87.853 418.725C87.9614 418.617 87.986 418.473 87.8905 418.329L87.5328 417.739ZM94.1896 410.634C92.3416 410.628 90.9815 411.667 90.9757 413.143C90.9711 414.307 91.7001 415.09 93.0067 415.43L94.5292 415.832C95.3563 416.05 95.7871 416.352 95.7849 416.928C95.7828 417.444 95.2769 417.946 94.2689 417.943C93.2609 417.939 92.6147 417.481 92.1365 417.011C91.9692 416.843 91.8015 416.758 91.5729 416.925L90.8988 417.439C90.6701 417.618 90.717 417.906 90.9082 418.099C91.4458 418.713 92.5233 419.365 94.1673 419.37C96.4472 419.378 97.5325 418.05 97.5375 416.778C97.5427 415.446 96.6575 414.747 95.3029 414.382L93.6606 413.945C92.9173 413.75 92.7026 413.425 92.7041 413.041C92.7066 412.405 93.344 412.047 94.136 412.05C94.856 412.053 95.4428 412.367 95.9932 412.789C96.2444 412.981 96.4605 412.946 96.6292 412.779L97.1352 412.265C97.2557 412.145 97.3765 411.941 97.0896 411.664C96.5397 411.135 95.5096 410.639 94.1896 410.634ZM101.156 413.274C99.3801 413.268 98.1027 414.632 98.096 416.348C98.0892 418.064 99.356 419.388 101.168 419.395C101.756 419.397 102.248 419.278 102.669 419.088C103.102 418.885 103.475 418.587 103.729 418.251C103.801 418.156 103.801 418.024 103.67 417.939L102.82 417.408C102.688 417.336 102.592 417.371 102.508 417.467C102.339 417.659 102.182 417.79 101.978 417.897C101.761 418.005 101.509 418.076 101.197 418.075C100.417 418.072 99.7713 417.53 99.6905 416.713L103.819 416.728C104.035 416.728 104.095 416.609 104.096 416.465L104.097 416.177C104.103 414.641 102.944 413.281 101.156 413.274ZM102.574 415.739L99.7304 415.73C99.8893 414.998 100.467 414.52 101.163 414.523C101.823 414.525 102.433 414.947 102.574 415.739ZM106.136 416.352C106.14 415.452 106.815 414.734 107.703 414.737C108.591 414.74 109.248 415.462 109.244 416.362C109.241 417.262 108.578 417.992 107.69 417.989C106.802 417.986 106.133 417.252 106.136 416.352ZM104.577 416.334C104.569 418.194 105.944 419.411 107.456 419.416C108.272 419.419 108.934 419.049 109.236 418.546L109.234 419.014C109.233 419.146 109.341 419.255 109.473 419.255L110.529 419.259C110.661 419.259 110.769 419.152 110.77 419.02L110.791 413.728C110.791 413.584 110.684 413.475 110.552 413.475L109.496 413.471C109.376 413.471 109.255 413.578 109.255 413.722L109.253 414.178C108.967 413.673 108.308 413.299 107.492 413.296C105.968 413.291 104.584 414.474 104.577 416.334ZM114.834 413.418C114.222 413.416 113.717 413.75 113.415 414.265L113.417 413.713C113.418 413.593 113.298 413.484 113.178 413.484L112.182 413.481C112.05 413.48 111.942 413.588 111.941 413.732L111.92 419.024C111.92 419.156 112.027 419.264 112.159 419.265L113.215 419.268C113.335 419.269 113.468 419.173 113.468 419.041L113.479 416.437C113.483 415.441 113.928 415.047 114.696 415.049L114.984 415.05C115.08 415.051 115.272 414.991 115.273 414.751L115.277 413.719C115.278 413.479 115.122 413.419 115.002 413.418H114.834ZM115.522 416.384C115.515 418.112 116.854 419.449 118.594 419.455C119.782 419.459 120.72 418.886 121.203 418.096C121.3 417.94 121.228 417.76 121.097 417.663L120.511 417.205C120.307 417.049 120.127 417.12 120.006 417.276C119.62 417.742 119.247 418.017 118.623 418.015C117.723 418.012 117.078 417.29 117.082 416.39C117.085 415.49 117.736 414.772 118.636 414.775C119.26 414.777 119.631 415.054 120.013 415.524C120.133 415.68 120.312 415.753 120.517 415.597L121.107 415.143C121.239 415.048 121.312 414.868 121.216 414.712C120.739 413.918 119.806 413.339 118.618 413.335C116.878 413.329 115.529 414.656 115.522 416.384ZM126.414 419.086C126.414 419.218 126.533 419.314 126.665 419.315L127.709 419.318C127.841 419.319 127.962 419.223 127.962 419.091L127.975 415.875C127.98 414.447 127.037 413.364 125.501 413.359C124.577 413.355 123.915 413.737 123.577 414.204L123.589 411.132C123.59 411 123.458 410.904 123.338 410.903L122.282 410.9C122.15 410.899 122.042 411.007 122.041 411.139L122.01 419.059C122.01 419.191 122.117 419.299 122.249 419.299L123.305 419.303C123.425 419.304 123.558 419.208 123.558 419.076L123.569 416.28C123.573 415.392 124.151 414.782 125.027 414.785C125.915 414.788 126.429 415.378 126.425 416.29L126.414 419.086Z" fill="white"/>
<path d="M234.818 388.357H9.09503V462.495H234.818V388.357Z" fill="#D3D800"/>
<path d="M31.9 344.72C27.78 344.72 24.54 347.88 24.54 352C24.54 356.12 27.78 359.28 31.9 359.28C34.94 359.28 37.66 357.68 38.58 354.94C38.64 354.76 38.66 354.58 38.36 354.5L36.36 354C36.06 353.94 35.98 354.14 35.92 354.28C35.2 355.74 33.86 356.8 31.92 356.8C29.26 356.8 27.34 354.7 27.34 352C27.34 349.3 29.26 347.2 31.92 347.2C33.86 347.2 35.2 348.26 35.92 349.72C35.98 349.86 36.06 350.06 36.36 350L38.36 349.5C38.66 349.42 38.64 349.24 38.58 349.06C37.66 346.32 34.94 344.72 31.9 344.72ZM39.2842 354.2C39.2842 357.06 41.5842 359.28 44.4642 359.28C47.3442 359.28 49.6442 357.06 49.6442 354.2C49.6442 351.32 47.3442 349.08 44.4642 349.08C41.5842 349.08 39.2842 351.32 39.2842 354.2ZM41.8842 354.18C41.8842 352.68 42.9842 351.48 44.4642 351.48C45.9442 351.48 47.0442 352.68 47.0442 354.18C47.0442 355.68 45.9442 356.88 44.4642 356.88C42.9842 356.88 41.8842 355.68 41.8842 354.18ZM53.5533 349.74C53.5533 349.54 53.3533 349.36 53.1333 349.36H51.3933C51.1733 349.36 50.9733 349.54 50.9733 349.74V355.18C50.9733 357.62 52.4733 359.28 54.9333 359.28C56.4533 359.28 57.3333 358.68 57.9333 357.86V358.62C57.9333 358.84 58.1333 359 58.3333 359H60.0933C60.3333 359 60.5133 358.82 60.5133 358.6V349.78C60.5133 349.54 60.3333 349.36 60.0933 349.36H58.3333C58.1333 349.36 57.9333 349.54 57.9333 349.74V354.78C57.9333 356.12 57.1333 357.08 55.7133 357.08C54.2533 357.08 53.5533 356.14 53.5533 354.74V349.74ZM64.9005 359H66.1805C66.3805 359 66.7005 358.92 66.7005 358.5V357.24C66.7005 356.96 66.5005 356.86 66.3005 356.86H65.7205C65.2405 356.86 65.0005 356.56 65.0005 356.1V345.42C65.0005 345.2 64.8205 345 64.5805 345H62.8405C62.6005 345 62.4205 345.2 62.4205 345.42V356.6C62.4205 358.06 63.1805 359 64.9005 359ZM69.8339 354.18C69.8339 352.68 70.9539 351.48 72.4339 351.48C73.9139 351.48 75.0139 352.68 75.0139 354.18C75.0139 355.68 73.9139 356.9 72.4339 356.9C70.9539 356.9 69.8339 355.68 69.8339 354.18ZM67.2339 354.16C67.2339 357.26 69.5139 359.28 72.0539 359.28C73.4139 359.28 74.4539 358.66 75.0139 357.82V358.6C75.0139 358.82 75.1939 359 75.4139 359H77.1539C77.3939 359 77.5739 358.82 77.5739 358.6V345.4C77.5739 345.18 77.3939 345 77.1539 345H75.4139C75.1939 345 74.9939 345.18 74.9939 345.4V350.5C74.5139 349.7 73.3939 349.08 72.0139 349.08C69.5139 349.08 67.2339 351.08 67.2339 354.16ZM85.3784 363.6C87.2784 363.6 88.4784 362.48 89.0384 360.76L92.5184 349.98C92.6384 349.62 92.5184 349.36 92.1584 349.36H90.1784C89.8784 349.36 89.7184 349.56 89.6584 349.78L87.6784 356.66L85.5784 349.78C85.5184 349.56 85.3784 349.36 85.1384 349.36H83.0784C82.6384 349.36 82.5784 349.66 82.6584 349.98L85.5784 358.6C85.6584 358.84 85.8184 359 86.0784 359H86.9784L86.4984 360.36C86.2784 360.96 85.8184 361.38 85.1984 361.38C84.7184 361.38 84.3184 361.18 83.9784 360.92C83.7384 360.74 83.3984 360.7 83.1584 361.02L82.5384 361.88C82.3584 362.12 82.3784 362.42 82.5584 362.6C83.2184 363.22 84.2384 363.6 85.3784 363.6ZM92.8975 354.2C92.8975 357.06 95.1975 359.28 98.0775 359.28C100.958 359.28 103.258 357.06 103.258 354.2C103.258 351.32 100.958 349.08 98.0775 349.08C95.1975 349.08 92.8975 351.32 92.8975 354.2ZM95.4975 354.18C95.4975 352.68 96.5975 351.48 98.0775 351.48C99.5575 351.48 100.658 352.68 100.658 354.18C100.658 355.68 99.5575 356.88 98.0775 356.88C96.5975 356.88 95.4975 355.68 95.4975 354.18ZM107.167 349.74C107.167 349.54 106.967 349.36 106.747 349.36H105.007C104.787 349.36 104.587 349.54 104.587 349.74V355.18C104.587 357.62 106.087 359.28 108.547 359.28C110.067 359.28 110.947 358.68 111.547 357.86V358.62C111.547 358.84 111.747 359 111.947 359H113.707C113.947 359 114.127 358.82 114.127 358.6V349.78C114.127 349.54 113.947 349.36 113.707 349.36H111.947C111.747 349.36 111.547 349.54 111.547 349.74V354.78C111.547 356.12 110.747 357.08 109.327 357.08C107.867 357.08 107.167 356.14 107.167 354.74V349.74ZM120.874 349.24C119.854 349.24 119.014 349.8 118.514 350.66V349.74C118.514 349.54 118.314 349.36 118.114 349.36H116.454C116.234 349.36 116.054 349.54 116.054 349.78V358.6C116.054 358.82 116.234 359 116.454 359H118.214C118.414 359 118.634 358.84 118.634 358.62V354.28C118.634 352.62 119.374 351.96 120.654 351.96H121.134C121.294 351.96 121.614 351.86 121.614 351.46V349.74C121.614 349.34 121.354 349.24 121.154 349.24H120.874ZM129.78 354.06C129.78 352.94 130.66 352.02 131.78 352.02C132.9 352.02 133.78 352.94 133.78 354.06C133.78 355.18 132.9 356.1 131.78 356.1C130.66 356.1 129.78 355.18 129.78 354.06ZM129.76 349.84V349.56C129.76 349.3 129.54 349.1 129.3 349.1H126.8C126.54 349.1 126.34 349.3 126.34 349.56V362.98C126.34 363.24 126.54 363.44 126.8 363.44H129.3C129.56 363.44 129.76 363.24 129.76 362.98V358.38C130.3 359.06 131.48 359.3 132.38 359.3C134.98 359.3 137.26 357.28 137.26 354.02C137.26 350.76 134.96 348.8 132.44 348.8C131.22 348.8 130.3 349.26 129.76 349.84ZM145.574 358.58C145.574 358.82 145.814 359 146.054 359H148.554C148.794 359 149.034 358.82 149.034 358.58V353.06C149.034 350.68 147.394 348.8 144.774 348.8C143.314 348.8 142.334 349.34 141.734 349.88V345.42C141.734 345.18 141.494 345 141.254 345H138.734C138.474 345 138.274 345.2 138.274 345.46V358.54C138.274 358.8 138.474 359 138.734 359H141.254C141.494 359 141.734 358.82 141.734 358.58V354.04C141.734 352.82 142.514 352 143.674 352C144.834 352 145.574 352.82 145.574 354.04V358.58ZM149.905 354.08C149.905 356.98 152.345 359.3 155.385 359.3C158.425 359.3 160.865 356.98 160.865 354.08C160.865 351.16 158.425 348.8 155.385 348.8C152.345 348.8 149.905 351.16 149.905 354.08ZM153.385 354.06C153.385 352.94 154.265 352.02 155.385 352.02C156.505 352.02 157.385 352.94 157.385 354.06C157.385 355.18 156.505 356.08 155.385 356.08C154.265 356.08 153.385 355.18 153.385 354.06ZM169.148 358.58C169.148 358.82 169.388 359 169.628 359H172.128C172.368 359 172.608 358.82 172.608 358.58V353.06C172.608 350.68 170.968 348.8 168.348 348.8C166.888 348.8 165.908 349.34 165.308 349.88V349.52C165.308 349.28 165.068 349.1 164.828 349.1H162.308C162.048 349.1 161.848 349.3 161.848 349.56V358.54C161.848 358.8 162.048 359 162.308 359H164.828C165.068 359 165.308 358.82 165.308 358.58V354.04C165.308 352.82 166.088 352 167.248 352C168.408 352 169.148 352.82 169.148 354.04V358.58ZM178.82 348.8C175.7 348.8 173.5 351.16 173.5 354.12C173.5 357 175.64 359.3 178.82 359.3C181.04 359.3 182.52 358.44 183.3 357.36C183.4 357.22 183.48 356.9 183.22 356.74L181.18 355.5C180.94 355.36 180.76 355.48 180.64 355.62C180.2 356.1 179.68 356.38 178.88 356.38C178.04 356.38 177.2 355.84 177.06 354.88H183.36C183.82 354.88 183.92 354.64 183.92 354.36V353.74C183.92 351.32 182.06 348.8 178.82 348.8ZM180.52 352.78H177.14C177.44 351.96 178.16 351.54 178.84 351.54C179.48 351.54 180.24 351.88 180.52 352.78ZM199.636 354.16C199.636 351.08 197.356 349.08 194.856 349.08C193.476 349.08 192.356 349.7 191.876 350.5V345.4C191.876 345.18 191.676 345 191.456 345H189.716C189.476 345 189.296 345.18 189.296 345.4V358.6C189.296 358.82 189.476 359 189.716 359H191.456C191.676 359 191.856 358.82 191.856 358.6V357.82C192.416 358.66 193.456 359.28 194.816 359.28C197.356 359.28 199.636 357.26 199.636 354.16ZM197.036 354.18C197.036 355.68 195.916 356.9 194.436 356.9C192.956 356.9 191.856 355.68 191.856 354.18C191.856 352.68 192.956 351.48 194.436 351.48C195.916 351.48 197.036 352.68 197.036 354.18ZM205.673 349.08C202.713 349.08 200.593 351.36 200.593 354.22C200.593 357.08 202.713 359.28 205.733 359.28C206.713 359.28 207.533 359.08 208.233 358.76C208.953 358.42 209.573 357.92 209.993 357.36C210.113 357.2 210.113 356.98 209.893 356.84L208.473 355.96C208.253 355.84 208.093 355.9 207.953 356.06C207.673 356.38 207.413 356.6 207.073 356.78C206.713 356.96 206.293 357.08 205.773 357.08C204.473 357.08 203.393 356.18 203.253 354.82H210.133C210.493 354.82 210.593 354.62 210.593 354.38V353.9C210.593 351.34 208.653 349.08 205.673 349.08ZM208.053 353.18H203.313C203.573 351.96 204.533 351.16 205.693 351.16C206.793 351.16 207.813 351.86 208.053 353.18ZM24.48 375.18C24.48 378.06 26.72 380.28 29.62 380.28C31.6 380.28 33.16 379.32 33.96 378C34.12 377.74 34 377.44 33.78 377.28L32.8 376.52C32.46 376.26 32.16 376.38 31.96 376.64C31.32 377.42 30.7 377.88 29.66 377.88C28.16 377.88 27.08 376.68 27.08 375.18C27.08 373.68 28.16 372.48 29.66 372.48C30.7 372.48 31.32 372.94 31.96 373.72C32.16 373.98 32.46 374.1 32.8 373.84L33.78 373.08C34 372.92 34.12 372.62 33.96 372.36C33.16 371.04 31.6 370.08 29.62 370.08C26.72 370.08 24.48 372.3 24.48 375.18ZM34.7334 375.2C34.7334 378.06 37.0334 380.28 39.9134 380.28C42.7934 380.28 45.0934 378.06 45.0934 375.2C45.0934 372.32 42.7934 370.08 39.9134 370.08C37.0334 370.08 34.7334 372.32 34.7334 375.2ZM37.3334 375.18C37.3334 373.68 38.4334 372.48 39.9134 372.48C41.3934 372.48 42.4934 373.68 42.4934 375.18C42.4934 376.68 41.3934 377.88 39.9134 377.88C38.4334 377.88 37.3334 376.68 37.3334 375.18ZM51.6709 380C51.9309 380 52.1309 379.82 52.1909 379.58L55.2509 370.98C55.3509 370.66 55.1709 370.36 54.8509 370.36H52.9509C52.6509 370.36 52.5109 370.54 52.4509 370.76L50.4509 377.38L48.2709 370.76C48.1909 370.54 48.0709 370.36 47.7709 370.36H45.8309C45.5109 370.36 45.3309 370.66 45.4509 370.98L48.5109 379.58C48.5909 379.82 48.7709 380 49.0509 380H51.6709ZM60.6928 370.08C57.7328 370.08 55.6128 372.36 55.6128 375.22C55.6128 378.08 57.7328 380.28 60.7528 380.28C61.7328 380.28 62.5528 380.08 63.2528 379.76C63.9728 379.42 64.5928 378.92 65.0128 378.36C65.1328 378.2 65.1328 377.98 64.9128 377.84L63.4928 376.96C63.2728 376.84 63.1128 376.9 62.9728 377.06C62.6928 377.38 62.4328 377.6 62.0928 377.78C61.7328 377.96 61.3128 378.08 60.7928 378.08C59.4928 378.08 58.4128 377.18 58.2728 375.82H65.1528C65.5128 375.82 65.6128 375.62 65.6128 375.38V374.9C65.6128 372.34 63.6728 370.08 60.6928 370.08ZM63.0728 374.18H58.3328C58.5928 372.96 59.5528 372.16 60.7128 372.16C61.8128 372.16 62.8328 372.86 63.0728 374.18ZM71.7136 370.24C70.6936 370.24 69.8536 370.8 69.3536 371.66V370.74C69.3536 370.54 69.1536 370.36 68.9536 370.36H67.2936C67.0736 370.36 66.8936 370.54 66.8936 370.78V379.6C66.8936 379.82 67.0736 380 67.2936 380H69.0536C69.2536 380 69.4736 379.84 69.4736 379.62V375.28C69.4736 373.62 70.2136 372.96 71.4936 372.96H71.9736C72.1336 372.96 72.4536 372.86 72.4536 372.46V370.74C72.4536 370.34 72.1936 370.24 71.9936 370.24H71.7136ZM74.9319 369.1C75.8119 369.1 76.5319 368.36 76.5319 367.48C76.5319 366.6 75.8119 365.86 74.9319 365.86C74.0319 365.86 73.3119 366.6 73.3119 367.48C73.3119 368.36 74.0319 369.1 74.9319 369.1ZM75.7919 380C76.0319 380 76.2119 379.8 76.2119 379.58V370.78C76.2119 370.54 76.0319 370.36 75.7919 370.36H74.0519C73.8119 370.36 73.6319 370.54 73.6319 370.78V379.58C73.6319 379.8 73.8119 380 74.0519 380H75.7919ZM85.4641 379.62C85.4641 379.84 85.6641 380 85.8841 380H87.6241C87.8441 380 88.0441 379.84 88.0441 379.62V374.26C88.0441 371.88 86.4641 370.08 83.9041 370.08C82.3641 370.08 81.2641 370.72 80.7041 371.5V370.74C80.7041 370.54 80.4841 370.36 80.2841 370.36H78.5241C78.3041 370.36 78.1241 370.54 78.1241 370.78V379.6C78.1241 379.82 78.3041 380 78.5241 380H80.2841C80.4841 380 80.7041 379.84 80.7041 379.62V374.96C80.7041 373.48 81.6641 372.46 83.1241 372.46C84.6041 372.46 85.4641 373.44 85.4641 374.96V379.62ZM92.0023 375.12C92.0023 373.62 93.1023 372.46 94.5823 372.46C96.0623 372.46 97.1623 373.62 97.1623 375.12C97.1623 376.64 96.0623 377.78 94.5823 377.78C93.1023 377.78 92.0023 376.64 92.0023 375.12ZM94.6223 382.38C93.1623 382.38 92.4023 381.62 92.2023 380.9C92.1223 380.74 91.9623 380.68 91.7423 380.72L89.8823 381.22C89.6823 381.26 89.6423 381.46 89.6823 381.62C90.1223 383.44 92.0023 384.6 94.5623 384.6C97.7823 384.6 99.7423 382.74 99.7423 380.06V370.78C99.7423 370.56 99.5623 370.38 99.3223 370.38H97.5823C97.3623 370.38 97.1823 370.56 97.1823 370.78V371.56C96.6823 370.72 95.5423 370.08 94.1623 370.08C91.6423 370.08 89.4023 372 89.4023 375.1C89.4023 378.2 91.6223 380.08 94.2623 380.08C95.6023 380.08 96.7023 379.48 97.1823 378.7V379.98C97.1823 381.4 96.3223 382.38 94.6223 382.38ZM111.747 377.6C111.567 377.34 111.267 377.34 110.967 377.52C110.627 377.74 110.287 377.82 110.047 377.82C109.587 377.82 108.947 377.56 108.947 376.58V372.52H111.747C111.967 372.52 112.167 372.32 112.167 372.1V370.78C112.167 370.54 111.967 370.36 111.747 370.36H108.947V367.68C108.947 367.44 108.767 367.26 108.547 367.26H106.787C106.547 367.26 106.367 367.44 106.367 367.68V370.36H105.047C104.827 370.36 104.647 370.54 104.647 370.78V372.1C104.647 372.32 104.827 372.52 105.047 372.52H106.367V377.16C106.367 379.32 107.967 380.2 109.567 380.2C110.667 380.2 111.667 379.86 112.287 379.24C112.467 379.06 112.507 378.82 112.347 378.58L111.747 377.6ZM120.816 379.62C120.816 379.84 121.016 380 121.236 380H122.976C123.196 380 123.396 379.84 123.396 379.62V374.26C123.396 371.88 121.816 370.08 119.256 370.08C117.716 370.08 116.616 370.72 116.056 371.5V366.38C116.056 366.16 115.836 366 115.636 366H113.876C113.656 366 113.476 366.18 113.476 366.4V379.6C113.476 379.82 113.656 380 113.876 380H115.636C115.836 380 116.056 379.84 116.056 379.62V374.96C116.056 373.48 117.016 372.46 118.476 372.46C119.956 372.46 120.816 373.44 120.816 374.96V379.62ZM129.814 370.08C126.854 370.08 124.734 372.36 124.734 375.22C124.734 378.08 126.854 380.28 129.874 380.28C130.854 380.28 131.674 380.08 132.374 379.76C133.094 379.42 133.714 378.92 134.134 378.36C134.254 378.2 134.254 377.98 134.034 377.84L132.614 376.96C132.394 376.84 132.234 376.9 132.094 377.06C131.814 377.38 131.554 377.6 131.214 377.78C130.854 377.96 130.434 378.08 129.914 378.08C128.614 378.08 127.534 377.18 127.394 375.82H134.274C134.634 375.82 134.734 375.62 134.734 375.38V374.9C134.734 372.34 132.794 370.08 129.814 370.08ZM132.194 374.18H127.454C127.714 372.96 128.674 372.16 129.834 372.16C130.934 372.16 131.954 372.86 132.194 374.18ZM143.934 370.08C141.454 370.08 139.854 371.42 139.854 373.16C139.854 374.72 140.894 375.7 142.454 376.02L143.994 376.34C144.994 376.54 145.534 376.74 145.534 377.3C145.534 377.8 145.034 378.26 143.994 378.26C142.974 378.26 142.174 377.82 141.534 377.26C141.294 377.06 141.014 376.9 140.634 377.2L139.894 377.8C139.494 378.12 139.454 378.58 140.194 379.14C140.954 379.72 142.194 380.28 143.874 380.28C146.414 380.28 148.174 378.92 148.174 377.06C148.174 375.32 146.934 374.5 145.234 374.18L143.654 373.88C142.774 373.72 142.434 373.42 142.434 372.96C142.434 372.5 142.994 372.1 143.874 372.1C144.714 372.1 145.534 372.48 146.154 372.92C146.514 373.14 146.814 373.14 147.054 372.86L147.694 372.1C147.914 371.84 147.954 371.54 147.674 371.3C147.054 370.76 145.774 370.08 143.934 370.08ZM149.05 375.18C149.05 378.06 151.29 380.28 154.19 380.28C156.17 380.28 157.73 379.32 158.53 378C158.69 377.74 158.57 377.44 158.35 377.28L157.37 376.52C157.03 376.26 156.73 376.38 156.53 376.64C155.89 377.42 155.27 377.88 154.23 377.88C152.73 377.88 151.65 376.68 151.65 375.18C151.65 373.68 152.73 372.48 154.23 372.48C155.27 372.48 155.89 372.94 156.53 373.72C156.73 373.98 157.03 374.1 157.37 373.84L158.35 373.08C158.57 372.92 158.69 372.62 158.53 372.36C157.73 371.04 156.17 370.08 154.19 370.08C151.29 370.08 149.05 372.3 149.05 375.18ZM161.924 375.18C161.924 373.68 163.044 372.48 164.524 372.48C166.004 372.48 167.104 373.68 167.104 375.18C167.104 376.68 166.004 377.9 164.524 377.9C163.044 377.9 161.924 376.68 161.924 375.18ZM159.324 375.16C159.324 378.26 161.624 380.28 164.144 380.28C165.504 380.28 166.604 379.66 167.104 378.82V379.6C167.104 379.82 167.284 380 167.504 380H169.264C169.484 380 169.664 379.82 169.664 379.6V370.78C169.664 370.54 169.484 370.36 169.264 370.36H167.504C167.304 370.36 167.104 370.54 167.104 370.78V371.54C166.624 370.7 165.524 370.08 164.164 370.08C161.624 370.08 159.324 372.06 159.324 375.16ZM174.041 380H175.321C175.521 380 175.841 379.92 175.841 379.5V378.24C175.841 377.96 175.641 377.86 175.441 377.86H174.861C174.381 377.86 174.141 377.56 174.141 377.1V366.42C174.141 366.2 173.961 366 173.721 366H171.981C171.741 366 171.561 366.2 171.561 366.42V377.6C171.561 379.06 172.321 380 174.041 380ZM181.435 370.08C178.475 370.08 176.355 372.36 176.355 375.22C176.355 378.08 178.475 380.28 181.495 380.28C182.475 380.28 183.295 380.08 183.995 379.76C184.715 379.42 185.335 378.92 185.755 378.36C185.875 378.2 185.875 377.98 185.655 377.84L184.235 376.96C184.015 376.84 183.855 376.9 183.715 377.06C183.435 377.38 183.175 377.6 182.835 377.78C182.475 377.96 182.055 378.08 181.535 378.08C180.235 378.08 179.155 377.18 179.015 375.82H185.895C186.255 375.82 186.355 375.62 186.355 375.38V374.9C186.355 372.34 184.415 370.08 181.435 370.08ZM183.815 374.18H179.075C179.335 372.96 180.295 372.16 181.455 372.16C182.555 372.16 183.575 372.86 183.815 374.18ZM190.656 365.72C188.536 365.72 187.156 366.76 186.496 367.8C186.116 368.4 186.416 368.68 186.616 368.82L187.536 369.46C187.836 369.68 188.176 369.66 188.396 369.36C188.936 368.62 189.616 368.12 190.456 368.12C191.536 368.12 192.176 368.82 192.176 369.64C192.176 371.34 189.576 372.62 189.576 374.62V375.06C189.576 375.3 189.756 375.48 189.976 375.48H191.736C191.936 375.48 192.136 375.34 192.136 375.08V374.94C192.136 373.42 194.936 372.12 194.936 369.42C194.936 367.54 193.456 365.72 190.656 365.72ZM190.876 380.28C191.836 380.28 192.636 379.48 192.636 378.52C192.636 377.54 191.836 376.74 190.876 376.74C189.896 376.74 189.096 377.54 189.096 378.52C189.096 379.48 189.896 380.28 190.876 380.28Z" fill="#125430"/>
</g>
<defs>
<filter id="filter0_d" x="19" y="396" width="136" height="40" filterUnits="userSpaceOnUse" color-interpolation-filters="sRGB">
<feFlood flood-opacity="0" result="BackgroundImageFix"/>
<feColorMatrix in="SourceAlpha" type="matrix" values="0 0 0 0 0 0 0 0 0 0 0 0 0 0 0 0 0 0 127 0"/>
<feOffset dy="2"/>
<feGaussianBlur stdDeviation="2"/>
<feColorMatrix type="matrix" values="0 0 0 0 0.45 0 0 0 0 0.45 0 0 0 0 0.45 0 0 0 0.2 0"/>
<feBlend mode="normal" in2="BackgroundImageFix" result="effect1_dropShadow"/>
<feBlend mode="normal" in="SourceGraphic" in2="effect1_dropShadow" result="shape"/>
</filter>
<clipPath id="clip0">
<rect width="635" height="476" fill="white"/>
</clipPath>
</defs>
</svg>
