<svg width="635" height="476" viewBox="0 0 635 476" fill="none" xmlns="http://www.w3.org/2000/svg">
<g clip-path="url(#clip0)">
<path d="M635 0H0V476H635V0Z" fill="#D3D800"/>
<path d="M611.103 279.832L677.881 242.949C681.547 241.01 683 237.167 683 233.323V218.338C683 215.27 680.094 212.943 676.791 214.494L606.017 251.024L535.209 214.494C532.303 212.943 529 215.27 529 218.338V233.323C529 237.167 530.453 241.01 534.119 242.949L600.897 279.867C603.804 281.383 607.833 281.383 611.103 279.832Z" fill="#BAD350"/>
<path d="M611.103 329.841L677.881 292.357C681.547 290.424 683 286.522 683 282.619V267.404C683 264.289 680.094 261.927 676.791 263.502L605.983 300.592L535.209 263.502C532.303 261.927 529 264.289 529 267.404V282.619C529 286.522 530.453 290.424 534.119 292.393L600.897 329.877C603.804 331.38 607.833 331.38 611.103 329.841Z" fill="#94C750"/>
<path d="M611.103 379.815L677.881 342.382C681.547 340.413 683 336.513 683 332.612V317.402C683 314.289 680.094 311.927 676.791 313.502L605.983 350.577L535.209 313.502C532.303 311.927 529 314.289 529 317.402V332.612C529 336.512 530.453 340.413 534.119 342.382L600.897 379.85C603.804 381.389 607.833 381.389 611.103 379.815Z" fill="#6EBB52"/>
<path d="M611.103 428.863L677.881 391.948C681.547 390.044 683 386.2 683 382.357V367.373C683 364.305 680.094 361.978 676.791 363.529L605.983 400.057L535.209 363.494C532.303 361.943 529 364.27 529 367.337V382.322C529 386.165 530.453 390.008 534.119 391.948L600.897 428.863C603.804 430.379 607.833 430.379 611.103 428.863Z" fill="#59B154"/>
<path d="M611.103 478.836L677.881 441.951C681.547 440.012 683 436.168 683 432.325V417.338C683 414.27 680.094 411.943 676.791 413.494L605.983 450.027L535.209 413.494C532.303 411.943 529 414.27 529 417.338V432.325C529 436.168 530.453 440.012 534.119 441.951L600.897 478.836C603.804 480.388 607.833 480.388 611.103 478.836Z" fill="#00AB4E"/>
<path d="M61.28 73V47.26C61.28 46.6 60.68 46 60.02 46H54.56C53.84 46 53.24 46.6 53.24 47.26V72.52C53.24 78.1 49.76 81.52 43.88 81.52C38 81.52 34.58 78.1 34.58 72.52V47.26C34.58 46.6 33.98 46 33.26 46H27.8C27.08 46 26.54 46.6 26.54 47.26V73.06C26.54 83.98 34.82 88.84 43.88 88.84C53 88.84 61.28 83.92 61.28 73ZM89.7359 86.86C89.7359 87.52 90.3359 88 90.9959 88H96.2159C96.8759 88 97.4759 87.52 97.4759 86.86V70.78C97.4759 63.64 92.7359 58.24 85.0559 58.24C80.4359 58.24 77.1359 60.16 75.4559 62.5V60.22C75.4559 59.62 74.7959 59.08 74.1959 59.08H68.9159C68.2559 59.08 67.7159 59.62 67.7159 60.34V86.8C67.7159 87.46 68.2559 88 68.9159 88H74.1959C74.7959 88 75.4559 87.52 75.4559 86.86V72.88C75.4559 68.44 78.3359 65.38 82.7159 65.38C87.1559 65.38 89.7359 68.32 89.7359 72.88V86.86ZM109.291 73.54C109.291 69.04 112.651 65.44 117.091 65.44C121.531 65.44 124.831 69.04 124.831 73.54C124.831 78.04 121.531 81.7 117.091 81.7C112.651 81.7 109.291 78.04 109.291 73.54ZM101.491 73.48C101.491 82.78 108.391 88.84 115.951 88.84C120.031 88.84 123.331 86.98 124.831 84.46V86.8C124.831 87.46 125.371 88 126.031 88H131.311C131.971 88 132.511 87.46 132.511 86.8V60.34C132.511 59.62 131.971 59.08 131.311 59.08H126.031C125.431 59.08 124.831 59.62 124.831 60.34V62.62C123.391 60.1 120.091 58.24 116.011 58.24C108.391 58.24 101.491 64.18 101.491 73.48ZM169.283 73.48C169.283 64.24 162.443 58.24 154.943 58.24C150.803 58.24 147.443 60.1 146.003 62.5V47.2C146.003 46.54 145.403 46 144.743 46H139.523C138.803 46 138.263 46.54 138.263 47.2V86.8C138.263 87.46 138.803 88 139.523 88H144.743C145.403 88 145.943 87.46 145.943 86.8V84.46C147.623 86.98 150.743 88.84 154.823 88.84C162.443 88.84 169.283 82.78 169.283 73.48ZM161.483 73.54C161.483 78.04 158.123 81.7 153.683 81.7C149.243 81.7 145.943 78.04 145.943 73.54C145.943 69.04 149.243 65.44 153.683 65.44C158.123 65.44 161.483 69.04 161.483 73.54ZM180.975 88H184.815C185.415 88 186.375 87.76 186.375 86.5V82.72C186.375 81.88 185.775 81.58 185.175 81.58H183.435C181.995 81.58 181.275 80.68 181.275 79.3V47.26C181.275 46.6 180.735 46 180.015 46H174.795C174.075 46 173.535 46.6 173.535 47.26V80.8C173.535 85.18 175.815 88 180.975 88ZM203.157 58.24C194.277 58.24 187.917 65.08 187.917 73.66C187.917 82.24 194.277 88.84 203.337 88.84C206.277 88.84 208.737 88.24 210.837 87.28C212.997 86.26 214.857 84.76 216.117 83.08C216.477 82.6 216.477 81.94 215.817 81.52L211.557 78.88C210.897 78.52 210.417 78.7 209.997 79.18C209.157 80.14 208.377 80.8 207.357 81.34C206.277 81.88 205.017 82.24 203.457 82.24C199.557 82.24 196.317 79.54 195.897 75.46H216.537C217.617 75.46 217.917 74.86 217.917 74.14V72.7C217.917 65.02 212.097 58.24 203.157 58.24ZM210.297 70.54H196.077C196.857 66.88 199.737 64.48 203.217 64.48C206.517 64.48 209.577 66.58 210.297 70.54ZM252.023 80.8C251.483 80.02 250.583 80.02 249.683 80.56C248.663 81.22 247.643 81.46 246.923 81.46C245.543 81.46 243.623 80.68 243.623 77.74V65.56H252.023C252.683 65.56 253.283 64.96 253.283 64.3V60.34C253.283 59.62 252.683 59.08 252.023 59.08H243.623V51.04C243.623 50.32 243.083 49.78 242.423 49.78H237.143C236.423 49.78 235.883 50.32 235.883 51.04V59.08H231.923C231.263 59.08 230.723 59.62 230.723 60.34V64.3C230.723 64.96 231.263 65.56 231.923 65.56H235.883V79.48C235.883 85.96 240.683 88.6 245.483 88.6C248.783 88.6 251.783 87.58 253.643 85.72C254.183 85.18 254.303 84.46 253.823 83.74L252.023 80.8ZM255.298 73.6C255.298 82.18 262.198 88.84 270.838 88.84C279.478 88.84 286.378 82.18 286.378 73.6C286.378 64.96 279.478 58.24 270.838 58.24C262.198 58.24 255.298 64.96 255.298 73.6ZM263.098 73.54C263.098 69.04 266.398 65.44 270.838 65.44C275.278 65.44 278.578 69.04 278.578 73.54C278.578 78.04 275.278 81.64 270.838 81.64C266.398 81.64 263.098 78.04 263.098 73.54ZM33.26 155H37.1C37.7 155 38.66 154.76 38.66 153.5V149.72C38.66 148.88 38.06 148.58 37.46 148.58H35.72C34.28 148.58 33.56 147.68 33.56 146.3V114.26C33.56 113.6 33.02 113 32.3 113H27.08C26.36 113 25.82 113.6 25.82 114.26V147.8C25.82 152.18 28.1 155 33.26 155ZM40.1417 140.6C40.1417 149.18 47.0417 155.84 55.6817 155.84C64.3217 155.84 71.2217 149.18 71.2217 140.6C71.2217 131.96 64.3217 125.24 55.6817 125.24C47.0417 125.24 40.1417 131.96 40.1417 140.6ZM47.9417 140.54C47.9417 136.04 51.2417 132.44 55.6817 132.44C60.1217 132.44 63.4217 136.04 63.4217 140.54C63.4217 145.04 60.1217 148.64 55.6817 148.64C51.2417 148.64 47.9417 145.04 47.9417 140.54ZM74.0689 140.54C74.0689 149.18 80.7889 155.84 89.4889 155.84C95.4289 155.84 100.109 152.96 102.509 149C102.989 148.22 102.629 147.32 101.969 146.84L99.0289 144.56C98.0089 143.78 97.1089 144.14 96.5089 144.92C94.5889 147.26 92.7289 148.64 89.6089 148.64C85.1089 148.64 81.8689 145.04 81.8689 140.54C81.8689 136.04 85.1089 132.44 89.6089 132.44C92.7289 132.44 94.5889 133.82 96.5089 136.16C97.1089 136.94 98.0089 137.3 99.0289 136.52L101.969 134.24C102.629 133.76 102.989 132.86 102.509 132.08C100.109 128.12 95.4289 125.24 89.4889 125.24C80.7889 125.24 74.0689 131.9 74.0689 140.54ZM112.689 140.54C112.689 136.04 116.049 132.44 120.489 132.44C124.929 132.44 128.229 136.04 128.229 140.54C128.229 145.04 124.929 148.7 120.489 148.7C116.049 148.7 112.689 145.04 112.689 140.54ZM104.889 140.48C104.889 149.78 111.789 155.84 119.349 155.84C123.429 155.84 126.729 153.98 128.229 151.46V153.8C128.229 154.46 128.769 155 129.429 155H134.709C135.369 155 135.909 154.46 135.909 153.8V127.34C135.909 126.62 135.369 126.08 134.709 126.08H129.429C128.829 126.08 128.229 126.62 128.229 127.34V129.62C126.789 127.1 123.489 125.24 119.409 125.24C111.789 125.24 104.889 131.18 104.889 140.48ZM160.441 147.8C159.901 147.02 159.001 147.02 158.101 147.56C157.081 148.22 156.061 148.46 155.341 148.46C153.961 148.46 152.041 147.68 152.041 144.74V132.56H160.441C161.101 132.56 161.701 131.96 161.701 131.3V127.34C161.701 126.62 161.101 126.08 160.441 126.08H152.041V118.04C152.041 117.32 151.501 116.78 150.841 116.78H145.561C144.841 116.78 144.301 117.32 144.301 118.04V126.08H140.341C139.681 126.08 139.141 126.62 139.141 127.34V131.3C139.141 131.96 139.681 132.56 140.341 132.56H144.301V146.48C144.301 152.96 149.101 155.6 153.901 155.6C157.201 155.6 160.201 154.58 162.061 152.72C162.601 152.18 162.721 151.46 162.241 150.74L160.441 147.8ZM179.016 125.24C170.136 125.24 163.776 132.08 163.776 140.66C163.776 149.24 170.136 155.84 179.196 155.84C182.136 155.84 184.596 155.24 186.696 154.28C188.856 153.26 190.716 151.76 191.976 150.08C192.336 149.6 192.336 148.94 191.676 148.52L187.416 145.88C186.756 145.52 186.276 145.7 185.856 146.18C185.016 147.14 184.236 147.8 183.216 148.34C182.136 148.88 180.876 149.24 179.316 149.24C175.416 149.24 172.176 146.54 171.756 142.46H192.396C193.476 142.46 193.776 141.86 193.776 141.14V139.7C193.776 132.02 187.956 125.24 179.016 125.24ZM186.156 137.54H171.936C172.716 133.88 175.596 131.48 179.076 131.48C182.376 131.48 185.436 133.58 186.156 137.54ZM214.057 122.3C216.697 122.3 218.857 120.08 218.857 117.44C218.857 114.8 216.697 112.58 214.057 112.58C211.357 112.58 209.197 114.8 209.197 117.44C209.197 120.08 211.357 122.3 214.057 122.3ZM216.637 155C217.357 155 217.897 154.4 217.897 153.74V127.34C217.897 126.62 217.357 126.08 216.637 126.08H211.417C210.697 126.08 210.157 126.62 210.157 127.34V153.74C210.157 154.4 210.697 155 211.417 155H216.637ZM242.414 147.8C241.874 147.02 240.974 147.02 240.074 147.56C239.054 148.22 238.034 148.46 237.314 148.46C235.934 148.46 234.014 147.68 234.014 144.74V132.56H242.414C243.074 132.56 243.674 131.96 243.674 131.3V127.34C243.674 126.62 243.074 126.08 242.414 126.08H234.014V118.04C234.014 117.32 233.474 116.78 232.814 116.78H227.534C226.814 116.78 226.274 117.32 226.274 118.04V126.08H222.314C221.654 126.08 221.114 126.62 221.114 127.34V131.3C221.114 131.96 221.654 132.56 222.314 132.56H226.274V146.48C226.274 152.96 231.074 155.6 235.874 155.6C239.174 155.6 242.174 154.58 244.034 152.72C244.574 152.18 244.694 151.46 244.214 150.74L242.414 147.8ZM260.989 125.24C252.109 125.24 245.749 132.08 245.749 140.66C245.749 149.24 252.109 155.84 261.169 155.84C264.109 155.84 266.569 155.24 268.669 154.28C270.829 153.26 272.689 151.76 273.949 150.08C274.309 149.6 274.309 148.94 273.649 148.52L269.389 145.88C268.729 145.52 268.249 145.7 267.829 146.18C266.989 147.14 266.209 147.8 265.189 148.34C264.109 148.88 262.849 149.24 261.289 149.24C257.389 149.24 254.149 146.54 253.729 142.46H274.369C275.449 142.46 275.749 141.86 275.749 141.14V139.7C275.749 132.02 269.929 125.24 260.989 125.24ZM268.129 137.54H253.909C254.689 133.88 257.569 131.48 261.049 131.48C264.349 131.48 267.409 133.58 268.129 137.54ZM287.331 139.34C287.331 135.44 289.671 132.38 293.871 132.38C298.071 132.38 300.051 135.44 300.051 139.34V153.86C300.051 154.52 300.711 155 301.311 155H306.531C307.131 155 307.791 154.52 307.791 153.86V139.34C307.791 135.44 310.071 132.38 314.271 132.38C318.471 132.38 320.451 135.44 320.451 139.34V153.86C320.451 154.52 321.051 155 321.711 155H326.931C327.591 155 328.191 154.52 328.191 153.86V137.48C328.191 131.24 324.291 125.24 315.831 125.24C312.111 125.24 308.271 126.68 305.571 130.34C303.951 127.28 300.651 125.24 296.331 125.24C292.431 125.24 289.011 127.1 287.331 129.5V127.22C287.331 126.62 286.671 126.08 286.071 126.08H280.791C280.131 126.08 279.591 126.62 279.591 127.34V153.8C279.591 154.46 280.131 155 280.791 155H286.071C286.671 155 287.331 154.52 287.331 153.86V139.34ZM343.213 114.26C343.213 113.6 342.613 113 341.893 113H336.313C335.593 113 334.993 113.6 334.993 114.26L335.173 139.52C335.173 140.18 335.713 140.78 336.433 140.78H341.773C342.493 140.78 343.093 140.18 343.093 139.52L343.213 114.26ZM339.073 155.84C342.013 155.84 344.413 153.44 344.413 150.56C344.413 147.62 342.013 145.22 339.073 145.22C336.193 145.22 333.793 147.62 333.793 150.56C333.793 153.44 336.193 155.84 339.073 155.84ZM44.96 208.62C53.72 208.62 59.12 202.14 59.3 194.34C59.3 186.66 53.84 180 44.96 180H27.32C26.48 180 25.82 180.66 25.82 181.44V220.56C25.82 221.4 26.48 222 27.32 222H35.18C35.96 222 36.62 221.4 36.62 220.56V208.62H44.96ZM48.02 194.28C48.02 197.1 45.98 199.14 43.1 199.2H36.62V189.42H43.1C45.98 189.42 48.02 191.46 48.02 194.28ZM69.8741 222H74.7941C75.5141 222 76.7141 221.82 76.7141 220.2V214.74C76.7141 213.72 76.0541 213.42 75.3941 213.42H73.3541C72.6941 213.42 72.2141 212.82 72.2141 212.22V181.44C72.2141 180.66 71.6141 180 70.8341 180H63.2741C62.4941 180 61.8341 180.66 61.8341 181.44V214.44C61.8341 218.52 63.8141 222 69.8741 222ZM93.7677 191.4C84.4077 191.4 77.8077 198.48 77.8077 207.36C77.8077 216 84.2277 222.9 93.7677 222.9C100.428 222.9 104.868 220.32 107.208 217.08C107.508 216.66 107.748 215.7 106.968 215.22L100.848 211.5C100.128 211.08 99.5877 211.44 99.2277 211.86C97.9077 213.3 96.3477 214.14 93.9477 214.14C91.4277 214.14 88.9077 212.52 88.4877 209.64H107.388C108.768 209.64 109.068 208.92 109.068 208.08V206.22C109.068 198.96 103.488 191.4 93.7677 191.4ZM98.8677 203.34H88.7277C89.6277 200.88 91.7877 199.62 93.8277 199.62C95.7477 199.62 98.0277 200.64 98.8677 203.34ZM121.177 207.18C121.177 203.82 123.817 201.06 127.177 201.06C130.537 201.06 133.177 203.82 133.177 207.18C133.177 210.54 130.537 213.3 127.177 213.3C123.817 213.3 121.177 210.54 121.177 207.18ZM110.737 207.06C110.737 216.84 117.997 222.9 125.557 222.9C129.097 222.9 131.977 221.58 133.237 219.72V220.62C133.237 221.4 133.837 222 134.617 222H142.117C142.897 222 143.497 221.4 143.497 220.62V193.68C143.497 192.9 142.897 192.3 142.117 192.3H134.617C133.897 192.3 133.237 192.9 133.237 193.68V194.58C131.977 192.72 129.157 191.4 125.617 191.4C118.057 191.4 110.737 197.28 110.737 207.06ZM160.16 191.4C151.82 191.4 147.08 195.96 147.08 201.42C147.08 206.34 150.32 209.22 155.24 210.3L160.28 211.38C162.62 211.86 163.76 212.34 163.76 213.42C163.76 214.2 162.74 214.98 160.88 214.98C158.24 214.98 156.02 213.72 154.28 212.28C153.38 211.5 152.42 210.96 150.92 212.1L147.5 214.62C145.82 215.88 146.12 217.92 149.48 220.02C152 221.58 155.9 222.9 160.64 222.9C169.34 222.9 174.38 218.22 174.38 212.46C174.38 206.52 169.7 204.24 164.96 203.28L160.58 202.38C158.42 201.96 157.76 201.48 157.76 200.64C157.76 199.86 158.9 199.32 160.4 199.32C162.74 199.32 165.08 200.46 166.76 201.42C168.14 202.2 169.1 202.2 170 201.24L172.76 198.24C173.72 197.16 173.78 196.14 172.64 195.18C170.9 193.62 166.58 191.4 160.16 191.4ZM192.322 191.4C182.962 191.4 176.362 198.48 176.362 207.36C176.362 216 182.782 222.9 192.322 222.9C198.982 222.9 203.422 220.32 205.762 217.08C206.062 216.66 206.302 215.7 205.522 215.22L199.402 211.5C198.682 211.08 198.142 211.44 197.782 211.86C196.462 213.3 194.902 214.14 192.502 214.14C189.982 214.14 187.462 212.52 187.042 209.64H205.942C207.322 209.64 207.622 208.92 207.622 208.08V206.22C207.622 198.96 202.042 191.4 192.322 191.4ZM197.422 203.34H187.282C188.182 200.88 190.342 199.62 192.382 199.62C194.302 199.62 196.582 200.64 197.422 203.34ZM241.45 212.58C240.85 211.62 239.77 211.62 238.75 212.28C237.79 212.88 236.89 213.12 236.35 213.12C235.81 213.12 234.01 213.06 234.01 210.36V200.88H242.05C242.83 200.88 243.49 200.22 243.49 199.44V193.68C243.49 192.9 242.83 192.3 242.05 192.3H234.01V184.98C234.01 184.2 233.41 183.6 232.63 183.6H225.07C224.29 183.6 223.63 184.2 223.63 184.98V192.3H219.97C219.19 192.3 218.59 192.9 218.59 193.68V199.44C218.59 200.22 219.19 200.88 219.97 200.88H223.63V212.94C223.63 219.96 228.97 222.78 234.37 222.78C238.09 222.78 241.81 221.52 243.85 219.18C244.51 218.52 244.63 217.68 244.03 216.72L241.45 212.58ZM262.849 191.76C260.449 191.76 258.109 192.72 256.309 195.24V193.56C256.309 192.84 255.589 192.3 254.869 192.3H247.729C246.949 192.3 246.349 192.9 246.349 193.68V220.62C246.349 221.4 246.949 222 247.729 222H255.289C256.009 222 256.729 221.46 256.729 220.74V207.84C256.729 204.42 258.169 202.8 261.649 202.8H263.389C263.989 202.8 265.249 202.56 265.249 200.94V193.56C265.249 192 264.289 191.76 263.629 191.76H262.849ZM276.551 236.22C283.211 236.22 287.771 232.5 289.571 226.2L298.691 194.64C299.111 193.2 298.751 192.3 297.371 192.3H289.031C287.951 192.3 287.471 193.02 287.291 193.74L282.911 212.34L277.991 193.74C277.811 193.02 277.331 192.3 276.551 192.3H267.911C266.111 192.3 265.931 193.44 266.291 194.64L274.511 220.56C274.751 221.34 275.351 222 276.311 222H280.091L279.071 225C278.471 226.74 277.091 227.16 275.771 227.16C274.511 227.16 273.251 226.44 272.351 225.84C271.511 225.24 270.131 225.06 269.291 226.38L266.711 230.52C266.111 231.48 266.171 232.44 266.891 233.04C269.171 234.96 272.651 236.22 276.551 236.22ZM34.4 274.18C34.4 270.82 37.04 268.06 40.4 268.06C43.76 268.06 46.4 270.82 46.4 274.18C46.4 277.54 43.76 280.3 40.4 280.3C37.04 280.3 34.4 277.54 34.4 274.18ZM23.96 274.06C23.96 283.84 31.22 289.9 38.78 289.9C42.32 289.9 45.2 288.58 46.46 286.72V287.62C46.46 288.4 47.06 289 47.84 289H55.34C56.12 289 56.72 288.4 56.72 287.62V260.68C56.72 259.9 56.12 259.3 55.34 259.3H47.84C47.12 259.3 46.46 259.9 46.46 260.68V261.58C45.2 259.72 42.38 258.4 38.84 258.4C31.28 258.4 23.96 264.28 23.96 274.06ZM70.2022 273.7C70.2022 270.34 72.9022 267.82 76.2022 267.82C79.5022 267.82 82.2022 270.34 82.2022 273.7C82.2022 277.06 79.5022 279.58 76.2022 279.58C72.9022 279.58 70.2022 277.06 70.2022 273.7ZM76.4422 294.28C73.2022 294.28 71.4622 292.48 70.7422 291.22C70.3222 290.5 69.7222 290.32 69.0622 290.5L61.3222 292.9C60.5422 293.14 60.5422 293.8 60.6622 294.22C62.1622 299.5 68.4022 303.22 76.1422 303.22C86.1622 303.22 92.5222 297.52 92.5222 289.12V260.68C92.5222 259.9 91.9222 259.3 91.1422 259.3H83.6422C82.9222 259.3 82.2622 259.9 82.2622 260.68V261.58C80.8822 259.84 77.9422 258.4 74.3422 258.4C66.7822 258.4 59.7622 264.52 59.7622 273.76C59.7622 283 66.7822 289 74.7622 289C78.2422 289 81.0622 287.68 82.2622 286.12V288.82C82.2622 292.06 80.1622 294.28 76.4422 294.28ZM105.943 274.18C105.943 270.82 108.583 268.06 111.943 268.06C115.303 268.06 117.943 270.82 117.943 274.18C117.943 277.54 115.303 280.3 111.943 280.3C108.583 280.3 105.943 277.54 105.943 274.18ZM95.503 274.06C95.503 283.84 102.763 289.9 110.323 289.9C113.863 289.9 116.743 288.58 118.003 286.72V287.62C118.003 288.4 118.603 289 119.383 289H126.883C127.663 289 128.263 288.4 128.263 287.62V260.68C128.263 259.9 127.663 259.3 126.883 259.3H119.383C118.663 259.3 118.003 259.9 118.003 260.68V261.58C116.743 259.72 113.923 258.4 110.383 258.4C102.823 258.4 95.503 264.28 95.503 274.06ZM137.545 257.32C140.785 257.32 143.485 254.62 143.485 251.38C143.485 248.14 140.785 245.44 137.545 245.44C134.305 245.44 131.605 248.14 131.605 251.38C131.605 254.62 134.305 257.32 137.545 257.32ZM141.325 289C142.105 289 142.705 288.34 142.705 287.56V260.68C142.705 259.9 142.105 259.3 141.325 259.3H133.765C132.985 259.3 132.325 259.9 132.325 260.68V287.56C132.325 288.34 132.985 289 133.765 289H141.325ZM168.698 287.74C168.698 288.46 169.418 289 170.138 289H177.638C178.358 289 179.078 288.46 179.078 287.74V271.18C179.078 264.04 174.158 258.4 166.298 258.4C161.918 258.4 158.978 260.02 157.178 261.64V260.56C157.178 259.84 156.458 259.3 155.738 259.3H148.178C147.398 259.3 146.798 259.9 146.798 260.68V287.62C146.798 288.4 147.398 289 148.178 289H155.738C156.458 289 157.178 288.46 157.178 287.74V274.12C157.178 270.46 159.518 268 162.998 268C166.478 268 168.698 270.46 168.698 274.12V287.74ZM195.013 248.44C195.013 247.66 194.353 247 193.513 247H185.713C184.873 247 184.213 247.66 184.213 248.44V272.86C184.213 273.7 184.873 274.36 185.713 274.36H193.513C194.353 274.36 195.013 273.7 195.013 272.86V248.44ZM189.613 289.9C193.093 289.9 195.973 287.02 195.973 283.6C195.973 280.12 193.093 277.24 189.613 277.24C186.133 277.24 183.313 280.12 183.313 283.6C183.313 287.02 186.133 289.9 189.613 289.9Z" fill="#125430"/>
<g filter="url(#filter0_d)">
<path d="M135 398H39C30.1634 398 23 405.163 23 414C23 422.837 30.1634 430 39 430H135C143.837 430 151 422.837 151 414C151 405.163 143.837 398 135 398Z" fill="#125430"/>
</g>
<path d="M47.4634 418.777L47.4735 416.185L49.2734 416.191C51.2534 416.198 52.2785 414.929 52.2843 413.429C52.2902 411.929 51.2752 410.654 49.2952 410.647L46.1393 410.636C45.9953 410.636 45.8868 410.755 45.8863 410.887L45.8553 418.771C45.8547 418.915 45.9622 419.036 46.1062 419.036L47.2102 419.04C47.3542 419.04 47.4628 418.921 47.4634 418.777ZM47.479 414.769L47.4897 412.057L49.1817 412.063C49.9857 412.066 50.6197 412.584 50.6164 413.424C50.6131 414.264 49.975 414.778 49.171 414.775L47.479 414.769ZM55.9364 413.214C55.3244 413.212 54.8191 413.546 54.5171 414.061L54.5191 413.509C54.5196 413.389 54.4001 413.281 54.2801 413.28L53.284 413.277C53.152 413.276 53.0436 413.384 53.043 413.528L53.0222 418.82C53.0217 418.952 53.1293 419.06 53.2613 419.061L54.3174 419.065C54.4374 419.065 54.5698 418.969 54.5703 418.837L54.5805 416.233C54.5844 415.237 55.03 414.843 55.7979 414.846L56.0859 414.847C56.1819 414.847 56.3741 414.788 56.3751 414.548L56.3791 413.516C56.3801 413.276 56.2243 413.215 56.1044 413.215L55.9364 413.214ZM56.6115 416.192C56.6047 417.908 57.9795 419.245 59.7075 419.251C61.4355 419.257 62.8207 417.93 62.8275 416.214C62.8343 414.486 61.4596 413.137 59.7317 413.131C58.0037 413.125 56.6183 414.464 56.6115 416.192ZM58.1715 416.186C58.1751 415.286 58.838 414.568 59.726 414.571C60.614 414.574 61.2712 415.297 61.2676 416.197C61.2641 417.097 60.6011 417.814 59.7132 417.811C58.8252 417.808 58.168 417.086 58.1715 416.186ZM64.9569 416.209C64.9605 415.309 65.6353 414.592 66.5233 414.595C67.4113 414.598 68.0685 415.32 68.065 416.22C68.0615 417.12 67.3985 417.85 66.5105 417.847C65.6225 417.844 64.9534 417.109 64.9569 416.209ZM63.397 416.192C63.3897 418.052 64.7529 419.269 66.2769 419.274C67.0929 419.277 67.7183 418.907 68.0563 418.404L68.0546 418.872C68.0541 419.004 68.1616 419.112 68.2936 419.113L69.3375 419.116C69.4815 419.117 69.59 419.009 69.5905 418.877L69.6216 410.957C69.6221 410.825 69.5146 410.717 69.3706 410.717L68.3266 410.713C68.1946 410.712 68.0741 410.82 68.0736 410.952L68.0616 414.012C67.7755 413.531 67.1049 413.157 66.277 413.154C64.777 413.149 63.4043 414.344 63.397 416.192ZM72.2498 413.571C72.2502 413.451 72.1308 413.342 71.9988 413.342L70.9548 413.338C70.8228 413.338 70.7022 413.445 70.7018 413.565L70.689 416.829C70.6833 418.293 71.5793 419.292 73.0553 419.297C73.9672 419.3 74.4968 418.942 74.8587 418.452L74.8569 418.908C74.8564 419.04 74.9759 419.136 75.0959 419.136L76.1519 419.14C76.2959 419.141 76.4043 419.033 76.4048 418.901L76.4256 413.609C76.4262 413.465 76.3186 413.357 76.1746 413.356L75.1186 413.352C74.9986 413.352 74.8782 413.46 74.8778 413.58L74.8659 416.604C74.8627 417.408 74.3805 417.982 73.5285 417.979C72.6525 417.976 72.2347 417.41 72.238 416.57L72.2498 413.571ZM77.2836 416.252C77.2768 417.98 78.6155 419.317 80.3555 419.323C81.5435 419.327 82.4818 418.754 82.9649 417.964C83.0615 417.808 82.9903 417.628 82.8587 417.531L82.2724 417.073C82.069 416.916 81.8888 416.988 81.7682 417.143C81.3824 417.61 81.0093 417.885 80.3853 417.883C79.4852 417.88 78.84 417.157 78.8436 416.257C78.8471 415.357 79.498 414.64 80.398 414.643C81.022 414.645 81.3929 414.922 81.7751 415.391C81.8945 415.548 82.0742 415.621 82.2788 415.465L82.8685 415.011C83.0009 414.916 83.0737 414.736 82.9783 414.58C82.5014 413.786 81.5676 413.207 80.3797 413.203C78.6396 413.197 77.2904 414.524 77.2836 416.252ZM87.5327 417.739C87.4254 417.583 87.2455 417.582 87.065 417.69C86.8605 417.821 86.6562 417.868 86.5122 417.868C86.2362 417.867 85.8529 417.71 85.8553 417.122L85.8647 414.686L87.5448 414.691C87.6768 414.692 87.7972 414.572 87.7977 414.44L87.8009 413.648C87.8015 413.504 87.6818 413.396 87.5498 413.395L85.8699 413.39L85.8762 411.782C85.8767 411.638 85.7691 411.529 85.6371 411.529L84.5812 411.525C84.4372 411.525 84.3288 411.632 84.3283 411.776L84.3218 413.384L83.5299 413.382C83.3979 413.381 83.2895 413.489 83.289 413.633L83.2857 414.425C83.2852 414.557 83.3928 414.677 83.5248 414.678L84.3168 414.68L84.3059 417.464C84.3008 418.76 85.2586 419.292 86.2186 419.295C86.8786 419.297 87.4794 419.095 87.8529 418.725C87.9613 418.617 87.986 418.473 87.8905 418.329L87.5327 417.739ZM94.1895 410.634C92.3415 410.628 90.9814 411.667 90.9757 413.143C90.9711 414.307 91.7001 415.09 93.0066 415.43L94.5291 415.832C95.3562 416.05 95.787 416.352 95.7848 416.928C95.7827 417.444 95.2768 417.946 94.2688 417.943C93.2608 417.939 92.6146 417.481 92.1364 417.011C91.9691 416.843 91.8014 416.758 91.5728 416.925L90.8988 417.439C90.6701 417.618 90.717 417.906 90.9082 418.099C91.4458 418.713 92.5232 419.365 94.1672 419.37C96.4471 419.378 97.5324 418.05 97.5374 416.778C97.5426 415.446 96.6575 414.747 95.3029 414.382L93.6605 413.945C92.9172 413.75 92.7026 413.425 92.7041 413.041C92.7066 412.405 93.344 412.047 94.136 412.05C94.856 412.053 95.4428 412.367 95.9932 412.789C96.2444 412.981 96.4605 412.946 96.6292 412.779L97.1352 412.265C97.2556 412.145 97.3764 411.941 97.0896 411.664C96.5396 411.135 95.5095 410.639 94.1895 410.634ZM101.156 413.274C99.38 413.268 98.1026 414.632 98.096 416.348C98.0891 418.064 99.3559 419.388 101.168 419.395C101.756 419.397 102.248 419.278 102.669 419.088C103.102 418.885 103.475 418.587 103.729 418.251C103.801 418.156 103.801 418.024 103.67 417.939L102.82 417.408C102.688 417.336 102.592 417.371 102.508 417.467C102.339 417.659 102.182 417.79 101.978 417.897C101.761 418.005 101.509 418.076 101.197 418.075C100.417 418.072 99.7712 417.53 99.6904 416.713L103.819 416.728C104.035 416.728 104.095 416.609 104.096 416.465L104.097 416.177C104.103 414.641 102.944 413.281 101.156 413.274ZM102.574 415.739L99.7304 415.73C99.8893 414.998 100.467 414.52 101.163 414.523C101.823 414.525 102.433 414.947 102.574 415.739ZM106.136 416.352C106.14 415.452 106.815 414.734 107.703 414.737C108.591 414.74 109.248 415.462 109.244 416.362C109.241 417.262 108.578 417.992 107.69 417.989C106.802 417.986 106.133 417.252 106.136 416.352ZM104.577 416.334C104.569 418.194 105.944 419.411 107.456 419.416C108.272 419.419 108.934 419.049 109.236 418.546L109.234 419.014C109.233 419.146 109.341 419.255 109.473 419.255L110.529 419.259C110.661 419.259 110.769 419.152 110.77 419.02L110.791 413.728C110.791 413.584 110.684 413.475 110.552 413.475L109.496 413.471C109.376 413.471 109.255 413.578 109.255 413.722L109.253 414.178C108.967 413.673 108.308 413.299 107.492 413.296C105.968 413.291 104.584 414.474 104.577 416.334ZM114.834 413.418C114.222 413.416 113.717 413.75 113.415 414.265L113.417 413.713C113.418 413.593 113.298 413.484 113.178 413.484L112.182 413.481C112.05 413.48 111.942 413.588 111.941 413.732L111.92 419.024C111.92 419.156 112.027 419.264 112.159 419.265L113.215 419.268C113.335 419.269 113.468 419.173 113.468 419.041L113.479 416.437C113.483 415.441 113.928 415.047 114.696 415.049L114.984 415.05C115.08 415.051 115.272 414.991 115.273 414.751L115.277 413.719C115.278 413.479 115.122 413.419 115.002 413.418H114.834ZM115.522 416.384C115.515 418.112 116.854 419.449 118.594 419.455C119.782 419.459 120.72 418.886 121.203 418.096C121.3 417.94 121.228 417.76 121.097 417.663L120.511 417.205C120.307 417.049 120.127 417.12 120.006 417.276C119.62 417.742 119.247 418.017 118.623 418.015C117.723 418.012 117.078 417.29 117.082 416.39C117.085 415.49 117.736 414.772 118.636 414.775C119.26 414.777 119.631 415.054 120.013 415.524C120.133 415.68 120.312 415.753 120.517 415.597L121.107 415.143C121.239 415.048 121.312 414.868 121.216 414.712C120.739 413.918 119.806 413.339 118.618 413.335C116.878 413.329 115.529 414.656 115.522 416.384ZM126.414 419.086C126.414 419.218 126.533 419.314 126.665 419.315L127.709 419.318C127.841 419.319 127.962 419.223 127.962 419.091L127.975 415.875C127.98 414.447 127.037 413.364 125.501 413.359C124.577 413.355 123.915 413.737 123.577 414.204L123.589 411.132C123.59 411 123.458 410.904 123.338 410.903L122.282 410.9C122.15 410.899 122.042 411.007 122.041 411.139L122.01 419.059C122.01 419.191 122.117 419.299 122.249 419.299L123.305 419.303C123.425 419.304 123.558 419.208 123.558 419.076L123.569 416.28C123.573 415.392 124.151 414.782 125.027 414.785C125.915 414.788 126.429 415.378 126.425 416.29L126.414 419.086Z" fill="white"/>
<path d="M234.818 388.357H9.09509V462.495H234.818V388.357Z" fill="#D3D800"/>
<path d="M30.56 347.88H30.66L32.54 353.34H28.72L30.56 347.88ZM26.94 358.62L27.96 355.6H33.32L34.36 358.62C34.44 358.86 34.56 359 34.8 359H36.9C37.22 359 37.42 358.76 37.28 358.36L32.62 345.42C32.52 345.12 32.26 345 32.06 345H29.38C29.18 345 28.92 345.12 28.82 345.42L24.18 358.38C24.04 358.76 24.22 359 24.52 359H26.5C26.72 359 26.86 358.84 26.94 358.62ZM43.237 349.24C42.217 349.24 41.377 349.8 40.877 350.66V349.74C40.877 349.54 40.677 349.36 40.477 349.36H38.817C38.597 349.36 38.417 349.54 38.417 349.78V358.6C38.417 358.82 38.597 359 38.817 359H40.577C40.777 359 40.997 358.84 40.997 358.62V354.28C40.997 352.62 41.737 351.96 43.017 351.96H43.497C43.657 351.96 43.977 351.86 43.977 351.46V349.74C43.977 349.34 43.717 349.24 43.517 349.24H43.237ZM49.4819 349.08C46.5219 349.08 44.4019 351.36 44.4019 354.22C44.4019 357.08 46.5219 359.28 49.5419 359.28C50.5219 359.28 51.3419 359.08 52.0419 358.76C52.7619 358.42 53.3819 357.92 53.8019 357.36C53.9219 357.2 53.9219 356.98 53.7019 356.84L52.2819 355.96C52.0619 355.84 51.9019 355.9 51.7619 356.06C51.4819 356.38 51.2219 356.6 50.8819 356.78C50.5219 356.96 50.1019 357.08 49.5819 357.08C48.2819 357.08 47.2019 356.18 47.0619 354.82H53.9419C54.3019 354.82 54.4019 354.62 54.4019 354.38V353.9C54.4019 351.34 52.4619 349.08 49.4819 349.08ZM51.8619 353.18H47.1219C47.3819 351.96 48.3419 351.16 49.5019 351.16C50.6019 351.16 51.6219 351.86 51.8619 353.18ZM61.5698 363.6C63.4698 363.6 64.6698 362.48 65.2298 360.76L68.7098 349.98C68.8298 349.62 68.7098 349.36 68.3498 349.36H66.3698C66.0698 349.36 65.9098 349.56 65.8498 349.78L63.8698 356.66L61.7698 349.78C61.7098 349.56 61.5698 349.36 61.3298 349.36H59.2698C58.8298 349.36 58.7698 349.66 58.8498 349.98L61.7698 358.6C61.8498 358.84 62.0098 359 62.2698 359H63.1698L62.6898 360.36C62.4698 360.96 62.0098 361.38 61.3898 361.38C60.9098 361.38 60.5098 361.18 60.1698 360.92C59.9298 360.74 59.5898 360.7 59.3498 361.02L58.7298 361.88C58.5498 362.12 58.5698 362.42 58.7498 362.6C59.4098 363.22 60.4298 363.6 61.5698 363.6ZM69.0889 354.2C69.0889 357.06 71.3889 359.28 74.2689 359.28C77.1489 359.28 79.4489 357.06 79.4489 354.2C79.4489 351.32 77.1489 349.08 74.2689 349.08C71.3889 349.08 69.0889 351.32 69.0889 354.2ZM71.6889 354.18C71.6889 352.68 72.7889 351.48 74.2689 351.48C75.7489 351.48 76.8489 352.68 76.8489 354.18C76.8489 355.68 75.7489 356.88 74.2689 356.88C72.7889 356.88 71.6889 355.68 71.6889 354.18ZM83.358 349.74C83.358 349.54 83.158 349.36 82.938 349.36H81.198C80.978 349.36 80.778 349.54 80.778 349.74V355.18C80.778 357.62 82.278 359.28 84.738 359.28C86.258 359.28 87.138 358.68 87.738 357.86V358.62C87.738 358.84 87.938 359 88.138 359H89.898C90.138 359 90.318 358.82 90.318 358.6V349.78C90.318 349.54 90.138 349.36 89.898 349.36H88.138C87.938 349.36 87.738 349.54 87.738 349.74V354.78C87.738 356.12 86.938 357.08 85.518 357.08C84.058 357.08 83.358 356.14 83.358 354.74V349.74ZM102.333 356.6C102.153 356.34 101.853 356.34 101.553 356.52C101.213 356.74 100.873 356.82 100.633 356.82C100.173 356.82 99.5333 356.56 99.5333 355.58V351.52H102.333C102.553 351.52 102.753 351.32 102.753 351.1V349.78C102.753 349.54 102.553 349.36 102.333 349.36H99.5333V346.68C99.5333 346.44 99.3533 346.26 99.1333 346.26H97.3733C97.1333 346.26 96.9533 346.44 96.9533 346.68V349.36H95.6333C95.4133 349.36 95.2333 349.54 95.2333 349.78V351.1C95.2333 351.32 95.4133 351.52 95.6333 351.52H96.9533V356.16C96.9533 358.32 98.5533 359.2 100.153 359.2C101.253 359.2 102.253 358.86 102.873 358.24C103.053 358.06 103.093 357.82 102.933 357.58L102.333 356.6ZM108.882 349.24C107.862 349.24 107.022 349.8 106.522 350.66V349.74C106.522 349.54 106.322 349.36 106.122 349.36H104.462C104.242 349.36 104.062 349.54 104.062 349.78V358.6C104.062 358.82 104.242 359 104.462 359H106.222C106.422 359 106.642 358.84 106.642 358.62V354.28C106.642 352.62 107.382 351.96 108.662 351.96H109.142C109.302 351.96 109.622 351.86 109.622 351.46V349.74C109.622 349.34 109.362 349.24 109.162 349.24H108.882ZM112.82 363.6C114.72 363.6 115.92 362.48 116.48 360.76L119.96 349.98C120.08 349.62 119.96 349.36 119.6 349.36H117.62C117.32 349.36 117.16 349.56 117.1 349.78L115.12 356.66L113.02 349.78C112.96 349.56 112.82 349.36 112.58 349.36H110.52C110.08 349.36 110.02 349.66 110.1 349.98L113.02 358.6C113.1 358.84 113.26 359 113.52 359H114.42L113.94 360.36C113.72 360.96 113.26 361.38 112.64 361.38C112.16 361.38 111.76 361.18 111.42 360.92C111.18 360.74 110.84 360.7 110.6 361.02L109.98 361.88C109.8 362.12 109.82 362.42 110 362.6C110.66 363.22 111.68 363.6 112.82 363.6ZM122.451 348.1C123.331 348.1 124.051 347.36 124.051 346.48C124.051 345.6 123.331 344.86 122.451 344.86C121.551 344.86 120.831 345.6 120.831 346.48C120.831 347.36 121.551 348.1 122.451 348.1ZM123.311 359C123.551 359 123.731 358.8 123.731 358.58V349.78C123.731 349.54 123.551 349.36 123.311 349.36H121.571C121.331 349.36 121.151 349.54 121.151 349.78V358.58C121.151 358.8 121.331 359 121.571 359H123.311ZM132.984 358.62C132.984 358.84 133.184 359 133.404 359H135.144C135.364 359 135.564 358.84 135.564 358.62V353.26C135.564 350.88 133.984 349.08 131.424 349.08C129.884 349.08 128.784 349.72 128.224 350.5V349.74C128.224 349.54 128.004 349.36 127.804 349.36H126.044C125.824 349.36 125.644 349.54 125.644 349.78V358.6C125.644 358.82 125.824 359 126.044 359H127.804C128.004 359 128.224 358.84 128.224 358.62V353.96C128.224 352.48 129.184 351.46 130.644 351.46C132.124 351.46 132.984 352.44 132.984 353.96V358.62ZM139.522 354.12C139.522 352.62 140.622 351.46 142.102 351.46C143.582 351.46 144.682 352.62 144.682 354.12C144.682 355.64 143.582 356.78 142.102 356.78C140.622 356.78 139.522 355.64 139.522 354.12ZM142.142 361.38C140.682 361.38 139.922 360.62 139.722 359.9C139.642 359.74 139.482 359.68 139.262 359.72L137.402 360.22C137.202 360.26 137.162 360.46 137.202 360.62C137.642 362.44 139.522 363.6 142.082 363.6C145.302 363.6 147.262 361.74 147.262 359.06V349.78C147.262 349.56 147.082 349.38 146.842 349.38H145.102C144.882 349.38 144.702 349.56 144.702 349.78V350.56C144.202 349.72 143.062 349.08 141.682 349.08C139.162 349.08 136.922 351 136.922 354.1C136.922 357.2 139.142 359.08 141.782 359.08C143.122 359.08 144.222 358.48 144.702 357.7V358.98C144.702 360.4 143.842 361.38 142.142 361.38ZM159.267 356.6C159.087 356.34 158.787 356.34 158.487 356.52C158.147 356.74 157.807 356.82 157.567 356.82C157.107 356.82 156.467 356.56 156.467 355.58V351.52H159.267C159.487 351.52 159.687 351.32 159.687 351.1V349.78C159.687 349.54 159.487 349.36 159.267 349.36H156.467V346.68C156.467 346.44 156.287 346.26 156.067 346.26H154.307C154.067 346.26 153.887 346.44 153.887 346.68V349.36H152.567C152.347 349.36 152.167 349.54 152.167 349.78V351.1C152.167 351.32 152.347 351.52 152.567 351.52H153.887V356.16C153.887 358.32 155.487 359.2 157.087 359.2C158.187 359.2 159.187 358.86 159.807 358.24C159.987 358.06 160.027 357.82 159.867 357.58L159.267 356.6ZM160.358 354.2C160.358 357.06 162.658 359.28 165.538 359.28C168.418 359.28 170.718 357.06 170.718 354.2C170.718 351.32 168.418 349.08 165.538 349.08C162.658 349.08 160.358 351.32 160.358 354.2ZM162.958 354.18C162.958 352.68 164.058 351.48 165.538 351.48C167.018 351.48 168.118 352.68 168.118 354.18C168.118 355.68 167.018 356.88 165.538 356.88C164.058 356.88 162.958 355.68 162.958 354.18ZM181.355 358.58L182.895 352.8L184.435 358.58C184.495 358.82 184.695 359 184.975 359H187.155C187.435 359 187.615 358.82 187.695 358.58L190.475 349.94C190.595 349.58 190.415 349.36 190.095 349.36H188.415C188.115 349.36 187.975 349.56 187.915 349.76L186.175 355.92L184.515 349.76C184.435 349.48 184.255 349.36 183.995 349.36H181.915C181.655 349.36 181.495 349.48 181.415 349.76L179.755 355.92L178.055 349.76C177.995 349.54 177.855 349.36 177.555 349.36H175.675C175.355 349.36 175.175 349.58 175.295 349.94L178.075 358.58C178.155 358.82 178.335 359 178.595 359H180.835C181.095 359 181.295 358.82 181.355 358.58ZM195.947 349.08C192.987 349.08 190.867 351.36 190.867 354.22C190.867 357.08 192.987 359.28 196.007 359.28C196.987 359.28 197.807 359.08 198.507 358.76C199.227 358.42 199.847 357.92 200.267 357.36C200.387 357.2 200.387 356.98 200.167 356.84L198.747 355.96C198.527 355.84 198.367 355.9 198.227 356.06C197.947 356.38 197.687 356.6 197.347 356.78C196.987 356.96 196.567 357.08 196.047 357.08C194.747 357.08 193.667 356.18 193.527 354.82H200.407C200.767 354.82 200.867 354.62 200.867 354.38V353.9C200.867 351.34 198.927 349.08 195.947 349.08ZM198.327 353.18H193.587C193.847 351.96 194.807 351.16 195.967 351.16C197.067 351.16 198.087 351.86 198.327 353.18ZM203.448 348.1C204.328 348.1 205.048 347.36 205.048 346.48C205.048 345.6 204.328 344.86 203.448 344.86C202.548 344.86 201.828 345.6 201.828 346.48C201.828 347.36 202.548 348.1 203.448 348.1ZM204.308 359C204.548 359 204.728 358.8 204.728 358.58V349.78C204.728 349.54 204.548 349.36 204.308 349.36H202.568C202.328 349.36 202.148 349.54 202.148 349.78V358.58C202.148 358.8 202.328 359 202.568 359H204.308ZM208.78 354.12C208.78 352.62 209.88 351.46 211.36 351.46C212.84 351.46 213.94 352.62 213.94 354.12C213.94 355.64 212.84 356.78 211.36 356.78C209.88 356.78 208.78 355.64 208.78 354.12ZM211.4 361.38C209.94 361.38 209.18 360.62 208.98 359.9C208.9 359.74 208.74 359.68 208.52 359.72L206.66 360.22C206.46 360.26 206.42 360.46 206.46 360.62C206.9 362.44 208.78 363.6 211.34 363.6C214.56 363.6 216.52 361.74 216.52 359.06V349.78C216.52 349.56 216.34 349.38 216.1 349.38H214.36C214.14 349.38 213.96 349.56 213.96 349.78V350.56C213.46 349.72 212.32 349.08 210.94 349.08C208.42 349.08 206.18 351 206.18 354.1C206.18 357.2 208.4 359.08 211.04 359.08C212.38 359.08 213.48 358.48 213.96 357.7V358.98C213.96 360.4 213.1 361.38 211.4 361.38ZM225.777 358.62C225.777 358.84 225.977 359 226.197 359H227.937C228.157 359 228.357 358.84 228.357 358.62V353.26C228.357 350.88 226.777 349.08 224.217 349.08C222.677 349.08 221.577 349.72 221.017 350.5V345.38C221.017 345.16 220.797 345 220.597 345H218.837C218.617 345 218.437 345.18 218.437 345.4V358.6C218.437 358.82 218.617 359 218.837 359H220.597C220.797 359 221.017 358.84 221.017 358.62V353.96C221.017 352.48 221.977 351.46 223.437 351.46C224.917 351.46 225.777 352.44 225.777 353.96V358.62ZM31.98 379.58C31.98 379.82 32.22 380 32.46 380H34.96C35.2 380 35.44 379.82 35.44 379.58V374.06C35.44 371.68 33.8 369.8 31.18 369.8C29.72 369.8 28.74 370.34 28.14 370.88V370.52C28.14 370.28 27.9 370.1 27.66 370.1H25.14C24.88 370.1 24.68 370.3 24.68 370.56V379.54C24.68 379.8 24.88 380 25.14 380H27.66C27.9 380 28.14 379.82 28.14 379.58V375.04C28.14 373.82 28.92 373 30.08 373C31.24 373 31.98 373.82 31.98 375.04V379.58ZM36.3117 375.08C36.3117 377.98 38.7517 380.3 41.7917 380.3C44.8317 380.3 47.2717 377.98 47.2717 375.08C47.2717 372.16 44.8317 369.8 41.7917 369.8C38.7517 369.8 36.3117 372.16 36.3117 375.08ZM39.7917 375.06C39.7917 373.94 40.6717 373.02 41.7917 373.02C42.9117 373.02 43.7917 373.94 43.7917 375.06C43.7917 376.18 42.9117 377.08 41.7917 377.08C40.6717 377.08 39.7917 376.18 39.7917 375.06ZM55.5542 379.58C55.5542 379.82 55.7942 380 56.0342 380H58.5342C58.7742 380 59.0142 379.82 59.0142 379.58V374.06C59.0142 371.68 57.3742 369.8 54.7542 369.8C53.2942 369.8 52.3142 370.34 51.7142 370.88V370.52C51.7142 370.28 51.4742 370.1 51.2342 370.1H48.7142C48.4542 370.1 48.2542 370.3 48.2542 370.56V379.54C48.2542 379.8 48.4542 380 48.7142 380H51.2342C51.4742 380 51.7142 379.82 51.7142 379.58V375.04C51.7142 373.82 52.4942 373 53.6542 373C54.8142 373 55.5542 373.82 55.5542 375.04V379.58ZM66.1259 375.7C66.4059 375.7 66.6259 375.48 66.6259 375.2V372.6C66.6259 372.32 66.4059 372.1 66.1259 372.1H60.9259C60.6459 372.1 60.4259 372.32 60.4259 372.6V375.2C60.4259 375.48 60.6459 375.7 60.9259 375.7H66.1259ZM71.577 375.06C71.577 373.94 72.457 373.02 73.577 373.02C74.697 373.02 75.577 373.94 75.577 375.06C75.577 376.18 74.697 377.1 73.577 377.1C72.457 377.1 71.577 376.18 71.577 375.06ZM71.557 370.84V370.56C71.557 370.3 71.337 370.1 71.097 370.1H68.597C68.337 370.1 68.137 370.3 68.137 370.56V383.98C68.137 384.24 68.337 384.44 68.597 384.44H71.097C71.357 384.44 71.557 384.24 71.557 383.98V379.38C72.097 380.06 73.277 380.3 74.177 380.3C76.777 380.3 79.057 378.28 79.057 375.02C79.057 371.76 76.757 369.8 74.237 369.8C73.017 369.8 72.097 370.26 71.557 370.84ZM85.5706 369.92C84.7706 369.92 83.9906 370.24 83.3906 371.08V370.52C83.3906 370.28 83.1506 370.1 82.9106 370.1H80.5306C80.2706 370.1 80.0706 370.3 80.0706 370.56V379.54C80.0706 379.8 80.2706 380 80.5306 380H83.0506C83.2906 380 83.5306 379.82 83.5306 379.58V375.28C83.5306 374.14 84.0106 373.6 85.1706 373.6H85.7506C85.9506 373.6 86.3706 373.52 86.3706 372.98V370.52C86.3706 370 86.0506 369.92 85.8306 369.92H85.5706ZM86.6047 375.08C86.6047 377.98 89.0447 380.3 92.0847 380.3C95.1247 380.3 97.5647 377.98 97.5647 375.08C97.5647 372.16 95.1247 369.8 92.0847 369.8C89.0447 369.8 86.6047 372.16 86.6047 375.08ZM90.0847 375.06C90.0847 373.94 90.9647 373.02 92.0847 373.02C93.2047 373.02 94.0847 373.94 94.0847 375.06C94.0847 376.18 93.2047 377.08 92.0847 377.08C90.9647 377.08 90.0847 376.18 90.0847 375.06ZM101.667 375.06C101.667 373.94 102.547 373.02 103.667 373.02C104.787 373.02 105.667 373.94 105.667 375.06C105.667 376.18 104.787 377.1 103.667 377.1C102.547 377.1 101.667 376.18 101.667 375.06ZM98.1872 375.02C98.1872 378.28 100.607 380.3 103.127 380.3C104.307 380.3 105.187 379.86 105.687 379.24V379.54C105.687 379.8 105.887 380 106.147 380H108.647C108.907 380 109.107 379.8 109.107 379.54V366.46C109.107 366.2 108.907 366 108.647 366H106.107C105.867 366 105.647 366.2 105.647 366.46V370.8C105.227 370.26 104.287 369.8 103.067 369.8C100.587 369.8 98.1872 371.76 98.1872 375.02ZM113.821 370.52C113.821 370.28 113.581 370.1 113.341 370.1H110.841C110.601 370.1 110.361 370.28 110.361 370.52V376.14C110.361 378.62 111.881 380.3 114.341 380.3C115.781 380.3 116.441 379.82 117.061 379.22V379.58C117.061 379.82 117.301 380 117.541 380H120.061C120.321 380 120.521 379.8 120.521 379.54V370.56C120.521 370.3 120.321 370.1 120.061 370.1H117.541C117.301 370.1 117.061 370.28 117.061 370.52V375.62C117.061 376.64 116.521 377.38 115.441 377.38C114.281 377.38 113.821 376.6 113.821 375.56V370.52ZM131.427 378.08C131.607 377.76 131.447 377.38 131.167 377.18L129.667 376.06C129.227 375.74 128.887 376.06 128.727 376.24C128.267 376.78 127.767 377.08 126.987 377.08C125.827 377.08 125.007 376.18 125.007 375.06C125.007 373.94 125.827 373.02 126.987 373.02C127.767 373.02 128.267 373.32 128.727 373.86C128.887 374.04 129.227 374.36 129.667 374.04L131.167 372.92C131.447 372.72 131.607 372.34 131.427 372.02C130.607 370.78 129.027 369.8 126.927 369.8C123.847 369.8 121.527 372.1 121.527 375.06C121.527 378.02 123.847 380.3 126.927 380.3C129.027 380.3 130.607 379.32 131.427 378.08ZM137.199 369.8C134.079 369.8 131.879 372.16 131.879 375.12C131.879 378 134.019 380.3 137.199 380.3C139.419 380.3 140.899 379.44 141.679 378.36C141.779 378.22 141.859 377.9 141.599 377.74L139.559 376.5C139.319 376.36 139.139 376.48 139.019 376.62C138.579 377.1 138.059 377.38 137.259 377.38C136.419 377.38 135.579 376.84 135.439 375.88H141.739C142.199 375.88 142.299 375.64 142.299 375.36V374.74C142.299 372.32 140.439 369.8 137.199 369.8ZM138.899 373.78H135.519C135.819 372.96 136.539 372.54 137.219 372.54C137.859 372.54 138.619 372.88 138.899 373.78ZM148.975 369.1C149.855 369.1 150.575 368.36 150.575 367.48C150.575 366.6 149.855 365.86 148.975 365.86C148.075 365.86 147.355 366.6 147.355 367.48C147.355 368.36 148.075 369.1 148.975 369.1ZM149.835 380C150.075 380 150.255 379.8 150.255 379.58V370.78C150.255 370.54 150.075 370.36 149.835 370.36H148.095C147.855 370.36 147.675 370.54 147.675 370.78V379.58C147.675 379.8 147.855 380 148.095 380H149.835ZM158.427 377.6C158.247 377.34 157.947 377.34 157.647 377.52C157.307 377.74 156.967 377.82 156.727 377.82C156.267 377.82 155.627 377.56 155.627 376.58V372.52H158.427C158.647 372.52 158.847 372.32 158.847 372.1V370.78C158.847 370.54 158.647 370.36 158.427 370.36H155.627V367.68C155.627 367.44 155.447 367.26 155.227 367.26H153.467C153.227 367.26 153.047 367.44 153.047 367.68V370.36H151.727C151.507 370.36 151.327 370.54 151.327 370.78V372.1C151.327 372.32 151.507 372.52 151.727 372.52H153.047V377.16C153.047 379.32 154.647 380.2 156.247 380.2C157.347 380.2 158.347 379.86 158.967 379.24C159.147 379.06 159.187 378.82 159.027 378.58L158.427 377.6ZM164.619 370.08C161.659 370.08 159.539 372.36 159.539 375.22C159.539 378.08 161.659 380.28 164.679 380.28C165.659 380.28 166.479 380.08 167.179 379.76C167.899 379.42 168.519 378.92 168.939 378.36C169.059 378.2 169.059 377.98 168.839 377.84L167.419 376.96C167.199 376.84 167.039 376.9 166.899 377.06C166.619 377.38 166.359 377.6 166.019 377.78C165.659 377.96 165.239 378.08 164.719 378.08C163.419 378.08 162.339 377.18 162.199 375.82H169.079C169.439 375.82 169.539 375.62 169.539 375.38V374.9C169.539 372.34 167.599 370.08 164.619 370.08ZM166.999 374.18H162.259C162.519 372.96 163.479 372.16 164.639 372.16C165.739 372.16 166.759 372.86 166.999 374.18ZM173.399 374.78C173.399 373.48 174.179 372.46 175.579 372.46C176.979 372.46 177.639 373.48 177.639 374.78V379.62C177.639 379.84 177.859 380 178.059 380H179.799C179.999 380 180.219 379.84 180.219 379.62V374.78C180.219 373.48 180.979 372.46 182.379 372.46C183.779 372.46 184.439 373.48 184.439 374.78V379.62C184.439 379.84 184.639 380 184.859 380H186.599C186.819 380 187.019 379.84 187.019 379.62V374.16C187.019 372.08 185.719 370.08 182.899 370.08C181.659 370.08 180.379 370.56 179.479 371.78C178.939 370.76 177.839 370.08 176.399 370.08C175.099 370.08 173.959 370.7 173.399 371.5V370.74C173.399 370.54 173.179 370.36 172.979 370.36H171.219C170.999 370.36 170.819 370.54 170.819 370.78V379.6C170.819 379.82 170.999 380 171.219 380H172.979C173.179 380 173.399 379.84 173.399 379.62V374.78ZM192.587 370.08C190.107 370.08 188.507 371.42 188.507 373.16C188.507 374.72 189.547 375.7 191.107 376.02L192.647 376.34C193.647 376.54 194.187 376.74 194.187 377.3C194.187 377.8 193.687 378.26 192.647 378.26C191.627 378.26 190.827 377.82 190.187 377.26C189.947 377.06 189.667 376.9 189.287 377.2L188.547 377.8C188.147 378.12 188.107 378.58 188.847 379.14C189.607 379.72 190.847 380.28 192.527 380.28C195.067 380.28 196.827 378.92 196.827 377.06C196.827 375.32 195.587 374.5 193.887 374.18L192.307 373.88C191.427 373.72 191.087 373.42 191.087 372.96C191.087 372.5 191.647 372.1 192.527 372.1C193.367 372.1 194.187 372.48 194.807 372.92C195.167 373.14 195.467 373.14 195.707 372.86L196.347 372.1C196.567 371.84 196.607 371.54 196.327 371.3C195.707 370.76 194.427 370.08 192.587 370.08ZM201.34 365.72C199.22 365.72 197.84 366.76 197.18 367.8C196.8 368.4 197.1 368.68 197.3 368.82L198.22 369.46C198.52 369.68 198.86 369.66 199.08 369.36C199.62 368.62 200.3 368.12 201.14 368.12C202.22 368.12 202.86 368.82 202.86 369.64C202.86 371.34 200.26 372.62 200.26 374.62V375.06C200.26 375.3 200.44 375.48 200.66 375.48H202.42C202.62 375.48 202.82 375.34 202.82 375.08V374.94C202.82 373.42 205.62 372.12 205.62 369.42C205.62 367.54 204.14 365.72 201.34 365.72ZM201.56 380.28C202.52 380.28 203.32 379.48 203.32 378.52C203.32 377.54 202.52 376.74 201.56 376.74C200.58 376.74 199.78 377.54 199.78 378.52C199.78 379.48 200.58 380.28 201.56 380.28Z" fill="#125430"/>
</g>
<defs>
<filter id="filter0_d" x="19" y="396" width="136" height="40" filterUnits="userSpaceOnUse" color-interpolation-filters="sRGB">
<feFlood flood-opacity="0" result="BackgroundImageFix"/>
<feColorMatrix in="SourceAlpha" type="matrix" values="0 0 0 0 0 0 0 0 0 0 0 0 0 0 0 0 0 0 127 0"/>
<feOffset dy="2"/>
<feGaussianBlur stdDeviation="2"/>
<feColorMatrix type="matrix" values="0 0 0 0 0.45 0 0 0 0 0.45 0 0 0 0 0.45 0 0 0 0.2 0"/>
<feBlend mode="normal" in2="BackgroundImageFix" result="effect1_dropShadow"/>
<feBlend mode="normal" in="SourceGraphic" in2="effect1_dropShadow" result="shape"/>
</filter>
<clipPath id="clip0">
<rect width="635" height="476" fill="white"/>
</clipPath>
</defs>
</svg>
