<svg id="Layer_1" data-name="Layer 1" xmlns="http://www.w3.org/2000/svg" viewBox="0 0 251.13 260.69"><defs><style>.cls-1{fill:#ffd287;fill-rule:evenodd;}.cls-2{fill:#fff;stroke:#000;stroke-width:7px;}.cls-2,.cls-3,.cls-4,.cls-5{stroke-miterlimit:10;}.cls-3{fill:#f37d2e;stroke:#f37d2c;}.cls-3,.cls-4,.cls-5{stroke-width:8px;}.cls-4{fill:#f8ab89;}.cls-4,.cls-5{stroke:#f8ac89;}.cls-5{fill:#f8ac89;}</style></defs><title>logo</title><g id="Forma_1" data-name="Forma 1"><path class="cls-1" d="M20.47,299.07l70,41.21a4.28,4.28,0,0,0,2.2.6,4.43,4.43,0,0,0,1.24-.18l172.43-51.89a4.36,4.36,0,0,0,.44-8.18l-42.34-18c-16-7.62-36.59-28.31-36.8-28.52a4.33,4.33,0,0,0-7,1.21c-7.09,15.1-27.73,19.58-28.22,19.69L21.52,291.11a4.37,4.37,0,0,0-1.05,8Zm134-35.6c.92-.19,20.67-4.42,31.07-19.32,7.09,6.69,22.22,20.14,35.36,26.41l31.44,13.38L93.25,331.81l-59.51-35Zm109.4,34.42L93.26,349.23,24.86,309a4.35,4.35,0,0,0-4.39,7.51l71.65,42.18,174.24-52.44a4.35,4.35,0,0,0-2.49-8.34Zm0,17.42L93.26,366.66,24.86,326.4a4.35,4.35,0,0,0-4.39,7.51l71.65,42.18,174.24-52.44a4.35,4.35,0,0,0-2.49-8.34Zm0,17.42L93.26,384.08l-68.4-40.26a4.35,4.35,0,0,0-4.39,7.51l71.65,42.18,174.24-52.44a4.35,4.35,0,0,0-2.49-8.34Zm0,17.42L93.26,401.5l-68.4-40.25a4.35,4.35,0,1,0-4.39,7.5l71.65,42.18,174.24-52.44a4.35,4.35,0,0,0-2.49-8.34Z" transform="translate(-18.33 -150.24)"/></g><path class="cls-2" d="M78.18,300.29" transform="translate(-18.33 -150.24)"/><path class="cls-3" d="M101.68,154.51,48.45,167.14a10.26,10.26,0,0,0-7.56,12.39l2.25,9.5,72.61-17.24-2.37-10A9.74,9.74,0,0,0,101.68,154.51Z" transform="translate(-18.33 -150.24)"/><rect class="cls-4" x="58.67" y="186.55" width="64.58" height="73.99" transform="translate(-66.65 -123.79) rotate(-13.11)"/><path class="cls-5" d="M121.13,210.72l112-26.09a2.21,2.21,0,0,1,2.65,1.66l1.42,6.07a2.23,2.23,0,0,1-1.66,2.66l-112,26.08" transform="translate(-18.33 -150.24)"/><path class="cls-3" d="M78.36,289.68,132,277a10.29,10.29,0,0,0,7.64-12.4l-2.25-9.5L64.22,272.41l2.37,10A9.78,9.78,0,0,0,78.36,289.68Z" transform="translate(-18.33 -150.24)"/></svg>